<?xml version="1.0" encoding="UTF-8"?>
<svg id="Layer_1" data-name="Layer 1" xmlns="http://www.w3.org/2000/svg" viewBox="0 0 148.26 344.78">
  <defs>
    <style>
      .cls-1, .cls-2 {
        stroke-width: 0px;
      }

      .cls-2 {
        fill: #fff;
      }
    </style>
  </defs>
  <g id="MTcgGn.tif">
    <g>
      <path class="cls-2" d="M148.25,172.43c0-35.79.06-71.58-.07-107.37-.02-4.95-.53-9.98-1.47-14.84-4.81-24.71-26.08-45.39-51.01-49.11C87.87-.05,79.81.16,71.85.05c-5.89-.08-11.87-.2-17.66.66C23.01,5.32.05,32.05.03,63.59-.02,136.08.02,208.57,0,281.06c0,8.16,1.34,16.1,4.59,23.56,10,22.99,27.35,36.65,52.36,39.48,9.45,1.07,19.09.55,28.65.51,3.71-.02,7.49-.39,11.13-1.13,30.43-6.21,51.52-32.13,51.52-63.19,0-35.96,0-71.91,0-107.87Z"/>
      <path class="cls-1" d="M148.25,172.43c0,35.96,0,71.91,0,107.87,0,31.06-21.1,56.98-51.52,63.19-3.64.74-7.42,1.11-11.13,1.13-9.55.04-19.2.56-28.65-.51-25-2.83-42.35-16.49-52.36-39.48C1.34,297.16,0,289.23,0,281.06c.01-72.49-.03-144.99.02-217.48C.05,32.05,23.01,5.32,54.19.71,59.98-.15,65.96-.02,71.85.05c7.96.1,16.02-.11,23.85,1.06,24.93,3.72,46.2,24.4,51.01,49.11.95,4.86,1.46,9.89,1.47,14.84.12,35.79.07,71.58.07,107.37ZM2.03,172.15c0,36.04.04,72.08-.02,108.12-.02,11.94,2.87,23.07,9.28,33.11,10.7,16.75,25.91,26.85,45.78,28.71,10.39.97,20.93.54,31.39.42,3.61-.04,7.27-.81,10.79-1.7,27.95-7.05,46.98-31.48,46.99-60.31.02-71.66.02-143.33-.03-214.99,0-4.06-.35-8.15-.95-12.16-3.72-24.89-24.79-46.43-49.55-50.2-7.01-1.07-14.23-.98-21.36-1.05-6.64-.07-13.38-.31-19.91.65C24.23,7.18,2.04,33.23,2.03,63.78c0,36.12,0,72.25,0,108.37Z"/>
      <path class="cls-2" d="M2.03,172.15c0-36.12,0-72.25,0-108.37,0-30.55,22.2-56.6,52.41-61.04,6.53-.96,13.27-.73,19.91-.65,7.13.08,14.35-.01,21.36,1.05,24.76,3.77,45.83,25.31,49.55,50.2.6,4.01.95,8.1.95,12.16.06,71.66.06,143.33.03,214.99,0,28.83-19.04,53.26-46.99,60.31-3.52.89-7.18,1.65-10.79,1.7-10.47.12-21,.56-31.39-.42-19.86-1.86-35.08-11.96-45.78-28.71-6.41-10.04-9.3-21.16-9.28-33.11.06-36.04.02-72.08.02-108.12ZM93.75,229.81c-.06-.16-.13-.32-.19-.48.2-.14.38-.3.59-.42,10.2-5.98,9.45-25.19-3.48-30.17-8.31-3.2-16.7-3.31-25.08-.55-6.45,2.12-10.56,6.6-11.53,13.4-1,6.99.36,13.28,6.76,17.51.08.05.04.29.08.68h-26.42v2.96h65.33v-2.92h-6.05ZM93.77,253.77c.64,0,1.27,0,1.91,0,3.28-.06,4.24-1.02,4.29-4.36.03-1.81,0-3.61,0-5.5h-2.91v6.76c-1.19,0-2.09,0-2.98,0-9.14.02-18.28-.07-27.42.11-6.43.13-10.97,3.96-12.28,10.25-.5,2.4-.53,4.95-.44,7.41.2,5.28,2.74,9.26,7.16,12.13,1.89,1.23,2.8.67,3.25-1.32-7.24-4.86-9.74-11.84-6.77-19.08,2.12-5.17,6.88-7.17,17.31-6.04,0,3.27-.25,6.6.06,9.88.39,4.1.72,8.31,1.99,12.18,1.72,5.24,6.28,7.01,11.48,7.01,5.54,0,9.76-2.72,11.42-7.61,2.35-6.92,2.15-16.42-6.1-21.82ZM76.66,186.69c3.74-.52,6.82-.74,9.79-1.41,8.64-1.97,14.09-8.24,14.52-16.42.52-9.6-3.55-16.29-12.1-19.19-7.69-2.61-15.53-2.62-23.2.1-8.1,2.87-11.84,8.82-11.81,18.16.02,7.8,4.31,13.98,12,16.51,3.66,1.2,7.57,1.6,10.8,2.25ZM54.96,134.84c10.8,0,21.36.31,31.88-.1,7.53-.29,12.47-4.42,13.73-10.88,1.42-7.26.49-13.94-6.59-18.5h6c-.05-1.2-.1-2.15-.14-3.13h-44.78v3.19c1.07,0,1.97,0,2.87,0,9.64,0,19.29-.12,28.93.09,2.19.05,4.65.8,6.47,2,4.15,2.73,5.84,9.94,4.16,15.69-1.45,4.96-5.18,8-10.95,8.17-9.55.28-19.11.21-28.67.29-.95,0-1.9,0-2.9,0v3.18ZM97.06,79.2h-39.27v-10.18h-2.98v10.4h-12.73v3.02c3.32,0,6.54.08,9.76-.03,2.28-.08,3.18.91,3.07,3.12-.08,1.71-.02,3.43-.02,5.12,2.9.12,2.91.12,2.93-2.29.02-1.88,0-3.76,0-5.84,4.35,0,8.32,0,12.29,0,8.64,0,17.28-.01,25.92,0,2.07,0,3.74-.65,3.84-2.95.15-3.29.04-6.59.04-9.95h-2.85v9.57Z"/>
      <path class="cls-1" d="M93.75,229.81h6.05v2.92H34.47v-2.96h26.42c-.04-.39,0-.62-.08-.68-6.4-4.23-7.76-10.52-6.76-17.51.97-6.8,5.08-11.28,11.53-13.4,8.38-2.76,16.77-2.65,25.08.55,12.93,4.98,13.68,24.19,3.48,30.17-.21.12-.39.28-.59.42.06.16.13.32.19.48ZM77.17,229.73c3.07,0,6.17.23,9.21-.08,2.06-.21,4.37-.72,6.02-1.88,5.52-3.88,6.3-9.72,5.33-15.81-.93-5.81-4.75-9.41-10.25-11.05-5.5-1.64-11.2-1.51-16.79-.66-10.18,1.55-14.86,7.82-13.78,17.96.77,7.17,5.59,11.52,12.78,11.53,2.49,0,4.98,0,7.48,0Z"/>
      <path class="cls-1" d="M93.77,253.77c8.25,5.39,8.45,14.9,6.1,21.82-1.66,4.89-5.88,7.61-11.42,7.61-5.2,0-9.76-1.76-11.48-7.01-1.27-3.87-1.61-8.08-1.99-12.18-.31-3.28-.06-6.6-.06-9.88-10.43-1.13-15.19.87-17.31,6.04-2.97,7.24-.47,14.22,6.77,19.08-.46,1.98-1.36,2.55-3.25,1.32-4.42-2.87-6.96-6.85-7.16-12.13-.09-2.47-.06-5.01.44-7.41,1.31-6.29,5.85-10.12,12.28-10.25,9.14-.18,18.28-.09,27.42-.11.89,0,1.79,0,2.98,0v-6.76h2.91c0,1.89.02,3.69,0,5.5-.05,3.34-1.01,4.3-4.29,4.36-.64.01-1.27,0-1.91,0ZM77.96,253.83c0,5.64-.06,11.04.05,16.43.03,1.29.51,2.61.99,3.84,1.44,3.76,4.3,5.59,8.53,5.62,5.39.04,7.95-1.35,9.55-5.5,1.82-4.73,1.49-9.46-.61-14.04-1.78-3.88-4.84-6.1-9.12-6.32-3.06-.16-6.13-.03-9.37-.03Z"/>
      <path class="cls-1" d="M76.66,186.69c-3.22-.65-7.14-1.05-10.8-2.25-7.69-2.52-11.97-8.71-12-16.51-.03-9.34,3.72-15.3,11.81-18.16,7.68-2.72,15.52-2.71,23.2-.1,8.55,2.9,12.61,9.59,12.1,19.19-.44,8.18-5.89,14.45-14.52,16.42-2.97.68-6.06.89-9.79,1.41ZM78.11,151.15c-3.24.29-5.9.37-8.51.78-7.56,1.2-12.47,6.62-12.81,13.95-.39,8.46,3.49,14.04,11.44,15.99,6.04,1.48,12.19,1.49,18.24.04,7.48-1.8,11.69-7.13,11.71-14.36.03-8.04-3.84-13.3-11.54-15.22-2.94-.73-6.04-.85-8.53-1.18Z"/>
      <path class="cls-1" d="M54.96,134.84v-3.18c1,0,1.95,0,2.9,0,9.56-.08,19.12-.01,28.67-.29,5.77-.17,9.5-3.21,10.95-8.17,1.69-5.75,0-12.96-4.16-15.69-1.83-1.2-4.28-1.95-6.47-2-9.64-.21-19.28-.09-28.93-.09-.9,0-1.81,0-2.87,0v-3.19h44.78c.04.98.09,1.93.14,3.13h-6c7.08,4.56,8.01,11.24,6.59,18.5-1.26,6.46-6.2,10.59-13.73,10.88-10.53.41-21.08.1-31.88.1Z"/>
      <path class="cls-1" d="M97.06,79.2v-9.57h2.85c0,3.36.11,6.66-.04,9.95-.1,2.3-1.77,2.95-3.84,2.95-8.64-.01-17.28,0-25.92,0-3.97,0-7.94,0-12.29,0,0,2.09.01,3.96,0,5.84-.02,2.4-.03,2.4-2.93,2.29,0-1.69-.07-3.41.02-5.12.11-2.22-.79-3.2-3.07-3.12-3.21.11-6.44.03-9.76.03v-3.02h12.73v-10.4h2.98v10.18h39.27Z"/>
      <path class="cls-2" d="M77.17,229.73c-2.49,0-4.98,0-7.48,0-7.2,0-12.02-4.35-12.78-11.53-1.08-10.14,3.6-16.41,13.78-17.96,5.59-.85,11.29-.97,16.79.66,5.51,1.64,9.32,5.23,10.25,11.05.97,6.09.19,11.93-5.33,15.81-1.65,1.16-3.95,1.67-6.02,1.88-3.04.31-6.14.08-9.21.08Z"/>
      <path class="cls-2" d="M77.96,253.83c3.24,0,6.32-.13,9.37.03,4.28.22,7.34,2.44,9.12,6.32,2.11,4.58,2.43,9.31.61,14.04-1.6,4.15-4.16,5.54-9.55,5.5-4.23-.03-7.08-1.86-8.53-5.62-.47-1.23-.96-2.55-.99-3.84-.11-5.39-.05-10.79-.05-16.43Z"/>
      <path class="cls-2" d="M78.11,151.15c2.49.33,5.58.44,8.53,1.18,7.7,1.92,11.57,7.18,11.54,15.22-.02,7.23-4.23,12.57-11.71,14.36-6.04,1.45-12.2,1.45-18.24-.04-7.95-1.95-11.83-7.53-11.44-15.99.34-7.33,5.25-12.75,12.81-13.95,2.61-.41,5.27-.49,8.51-.78Z"/>
    </g>
  </g>
</svg>