<?xml version="1.0" encoding="UTF-8"?>
<svg id="Layer_1" data-name="Layer 1" xmlns="http://www.w3.org/2000/svg" viewBox="0 0 225.02 673.89">
  <defs>
    <style>
      .cls-1, .cls-2 {
        stroke: #191818;
        stroke-miterlimit: 10;
      }

      .cls-2 {
        fill: #fff;
      }
    </style>
  </defs>
  <path class="cls-1" d="M.5,336.94c0-110.28,0-220.57,0-330.85q0-5.59,5.49-5.59c71.2,0,142.4,0,213.6,0,4.9,0,4.92.01,4.92,4.77,0,221.04,0,442.07,0,663.11,0,5-.02,5.01-5.08,5.01-71.43,0-142.86,0-214.3,0q-4.64,0-4.64-4.55c0-110.63,0-221.27,0-331.9ZM3.26,3.37v667.52h218.14V3.37H3.26Z"/>
  <path class="cls-2" d="M3.26,3.37h218.14v667.52H3.26V3.37ZM114.21,219.62c-1.42.57-1.81.78-2.24.9-11.46,3.03-22.89,6.15-34.39,9-2.39.59-3.32,1.44-3.26,3.93.09,3.5-.33,7.01-.31,10.51.02,3.88.28,7.75.45,12.05,1.74-.4,2.87-.56,3.93-.91,5.48-1.78,10.89-3.78,16.41-5.39,17.5-5.11,35.03-10.09,52.57-15.07,2.05-.58,3.11-1.44,3.05-3.83-.16-7.03-.16-14.06,0-21.09.05-2.38-.97-3.29-3.02-3.9-9.46-2.78-18.91-5.62-28.34-8.49-14.04-4.28-28.07-8.6-42.1-12.9.02-.19.05-.38.07-.57,1.12,0,2.24,0,3.36,0,10.76,0,21.51,0,32.27,0,11.46,0,22.91-.02,34.37,0,1.95,0,3.38-.16,3.37-2.76-.07-19.34-.05-38.67,0-58.01,0-2.24-.8-3.14-3.09-3.09-4.79.12-9.59.2-14.38-.03-3.01-.14-3.81.99-3.77,3.85.13,10.55.06,21.09.04,31.64,0,1.23-.11,2.46-.18,3.73h-6.31c-.06-1.39-.17-2.64-.17-3.9-.01-8.55-.09-17.11.05-25.66.05-2.91-.61-4.26-3.87-4.04-4.31.29-8.66.27-12.97,0-3.09-.19-3.74,1.09-3.7,3.86.12,8.67.05,17.34.03,26.02,0,1.23-.13,2.46-.2,3.68h-6.34v-37.38c-5.77,0-11.12,0-16.47,0-4.69,0-4.72,0-4.68,4.82.17,19.06.44,38.13.52,57.19.03,7.47-.27,14.95-.56,22.42-.1,2.46.8,3.38,3.2,3.97,11.95,2.94,23.85,6.12,36.67,9.46ZM95.46,365.47v-36.43h-20.69c-.18.55-.32.77-.32.99-.03,19.33-.04,38.65-.1,57.98,0,2.17.93,2.76,2.99,2.76,23.37-.05,46.74-.05,70.11,0,2.11,0,2.93-.75,2.93-2.86-.04-19.21-.04-38.42,0-57.63,0-2.15-.86-2.87-2.94-2.83-4.91.09-9.82.17-14.72-.03-2.84-.12-3.6.93-3.58,3.66.04,10.19-.13,20.38-.23,30.57-.01,1.23-.12,2.46-.18,3.69-2.24.17-4.05.31-6.41.49v-34.13c-5.75,0-10.99.15-16.2-.06-3.04-.12-4.14.86-4.08,3.97.16,8.08.05,16.16.05,24.25,0,1.83,0,3.65,0,5.62h-6.61ZM108.15,73.61c.06.22.12.43.18.65-1.06.61-2.1,1.24-3.18,1.82-9.36,5.01-18.75,9.95-28.04,15.09-1.16.64-2.42,2.31-2.47,3.56-.29,6.55-.16,13.11-.29,19.67-.04,2.09.67,2.87,2.82,2.87,23.49-.06,46.97-.06,70.46-.01,2.2,0,2.8-.88,2.76-2.93-.09-5.86-.1-11.71.02-17.57.05-2.57-.89-3.54-3.49-3.49-6.54.12-13.09.04-19.63.04-3.79,0-7.57,0-11.36,0,.73-1.12,1.58-1.66,2.45-2.13,9.73-5.27,19.49-10.48,29.15-15.86,1.21-.67,2.66-2.24,2.71-3.45.26-6.55.21-13.12,0-19.67-.03-.85-1.55-2.37-2.39-2.37-23.6-.13-47.2-.09-70.81-.13-2.01,0-2.77.81-2.67,2.7.04.7-.01,1.41,0,2.11.15,6.18.32,12.35.47,18.53,6.14.19,12.27.45,18.41.56,4.96.09,9.93.02,14.89.02ZM74.43,549c17.41,0,34.18.08,50.95-.02,13.02-.08,21.66-7.72,24.55-18.96,1.79-6.98,1.81-14.59,1.56-21.88-.53-15.59-10.37-25.76-25.62-27.17-3.78-.35-7.61-.18-11.42-.2-11.92-.06-23.83-.1-35.75-.13-1.35,0-2.7.14-4.31.23,0,7.79.03,15.16-.02,22.53-.01,2.15,1.25,2.44,2.96,2.45,7.01.05,14.01.08,21.02.23,8.28.17,16.57.3,24.83.75,4.54.25,7.83,4.23,7.84,8.71.01,4.93-2.79,8-7.93,8.44-2.79.24-5.6.28-8.4.3-12.27.05-24.54,0-36.8.16-1.16.01-3.29,1.1-3.31,1.75-.23,7.69-.15,15.39-.15,22.81ZM74.4,623.58c3.55,0,6.56,0,9.57,0,20.91,0,41.83-.02,62.74.03,2.22,0,3.79-.05,3.7-3.07-.2-6.2-.13-12.41-.02-18.62.04-2.26-.72-3.13-3.03-3.07-5.02.13-10.07-.28-15.06.13-4.33.36-6.88-1.72-9.32-4.94,1.12-.73,2.08-1.38,3.06-1.99,7.12-4.41,14.21-8.87,21.39-13.19,2.14-1.28,3.06-2.79,2.99-5.37-.2-7.37-.11-14.76-.22-22.13-.02-1.06-.55-2.11-.85-3.16-1.05.38-2.22.56-3.12,1.16-9.84,6.49-19.64,13.05-29.46,19.59-4.15,2.76-8.31,5.52-12.46,8.28-9.75-8.71-19.26-17.21-29.23-26.12-.38,1.39-.65,1.92-.65,2.44-.03,8.67-.11,17.34.06,26,.02,1.12,1.12,2.5,2.1,3.29,4.08,3.31,8.32,6.43,12.47,9.65,2.39,1.85,4.74,3.77,7.11,5.66-6.53.75-12.7.66-18.86.84-.99.03-2.76,1.22-2.78,1.91-.2,7.36-.13,14.73-.13,22.7ZM74.37,299.75c0,7.51.13,14.4-.06,21.27-.08,2.98.94,3.74,3.8,3.68,15.66-.31,31.32-.52,46.98-.6,10.06-.05,21.11-7.06,24.62-17.44,2.93-8.65,2.49-17.37,1.36-26-1.4-10.69-6.98-18.87-17.89-21.87-4.51-1.24-9.37-1.55-14.08-1.68-14.11-.39-28.23-.5-42.35-.59-.78,0-2.23,1.21-2.24,1.88-.16,7.45-.1,14.9-.1,22.5,1.52.1,2.55.21,3.58.22,10.99.13,21.97.16,32.96.39,4.54.1,9.1.41,13.6,1,4.2.56,5.98,2.82,6.34,7.07.45,5.3-3.15,9.61-8.46,10.01-1.98.15-3.97.15-5.96.16-13.79.01-27.58,0-42.11,0ZM149.69,450.52c.32-.66.51-.86.51-1.06,0-17.46.03-34.91-.13-52.37,0-.74-1.72-2.03-2.7-2.09-4.89-.31-9.81-.34-14.72-.39-1.1-.01-2.2.27-3.55.45v30.86c-1.55,0-2.79,0-4.04,0-15.66,0-31.33.07-46.99-.06-2.97-.03-3.85.93-3.77,3.81.18,5.74.2,11.49,0,17.22-.11,3.01,1,3.71,3.83,3.69,20.81-.11,41.62-.06,62.42-.06,3.03,0,6.07,0,9.12,0Z"/>
  <path class="cls-1" d="M114.21,219.62c-12.82-3.33-24.72-6.52-36.67-9.46-2.4-.59-3.3-1.5-3.2-3.97.3-7.47.6-14.94.56-22.42-.08-19.07-.35-38.13-.52-57.19-.04-4.82-.01-4.82,4.68-4.82,5.35,0,10.69,0,16.47,0v37.38h6.34c.07-1.22.2-2.45.2-3.68.02-8.67.1-17.35-.03-26.02-.04-2.77.61-4.05,3.7-3.86,4.31.26,8.66.28,12.97,0,3.26-.22,3.92,1.13,3.87,4.04-.14,8.55-.06,17.11-.05,25.66,0,1.26.11,2.51.17,3.9h6.31c.06-1.27.18-2.5.18-3.73.01-10.55.08-21.1-.04-31.64-.03-2.86.76-3.99,3.77-3.85,4.78.23,9.59.14,14.38.03,2.29-.06,3.1.84,3.09,3.09-.04,19.34-.06,38.67,0,58.01,0,2.6-1.42,2.77-3.37,2.76-11.46-.03-22.91,0-34.37,0-10.76,0-21.51,0-32.27,0-1.12,0-2.24,0-3.36,0-.02.19-.05.38-.07.57,14.03,4.3,28.06,8.63,42.1,12.9,9.43,2.87,18.88,5.71,28.34,8.49,2.04.6,3.07,1.52,3.02,3.9-.16,7.03-.16,14.06,0,21.09.05,2.4-1.01,3.25-3.05,3.83-17.54,4.98-35.07,9.97-52.57,15.07-5.52,1.61-10.94,3.61-16.41,5.39-1.06.35-2.19.51-3.93.91-.17-4.3-.43-8.18-.45-12.05-.02-3.5.4-7.01.31-10.51-.06-2.49.88-3.34,3.26-3.93,11.5-2.86,22.94-5.97,34.39-9,.42-.11.82-.32,2.24-.9ZM76.85,180.94h70.79v-58h-16.01c0,1.36,0,2.5,0,3.64,0,9.02-.01,18.05-.01,27.07,0,8.23,0,8.14-8.17,8.08-2.54-.02-3.47-.73-3.42-3.41.16-8.67.06-17.34.06-26.02,0-1.25,0-2.49,0-3.87h-15.41c0,8.49,0,16.78,0,25.07,0,8.36,0,8.25-8.4,8.21-2.73-.01-3.34-1.06-3.32-3.55.1-9.37.03-18.75.03-28.12,0-1.83,0-3.66,0-5.53h-16.13v56.42ZM76.72,253.23c3.59-1.43,6.46-2.86,9.5-3.75,19.64-5.72,39.31-11.35,59.01-16.89,2.07-.58,2.85-1.39,2.8-3.56-.14-5.74-.17-11.49,0-17.23.08-2.49-.87-3.34-3.17-4.02-17.61-5.26-35.18-10.69-52.76-16.06-4.98-1.52-9.96-3.01-15.38-4.65,0,6.21.08,11.82-.04,17.43-.05,2.12.56,2.98,2.75,3.53,12.59,3.17,25.13,6.54,37.66,9.96,1.13.31,2.02,1.5,3.02,2.29-1.06.56-2.07,1.34-3.2,1.64-12.69,3.35-25.41,6.6-38.08,10.02-.87.23-1.98,1.65-2.01,2.55-.18,5.96-.09,11.93-.09,18.75Z"/>
  <path class="cls-1" d="M95.46,365.47h6.61c0-1.97,0-3.79,0-5.62,0-8.08.11-16.17-.05-24.25-.06-3.12,1.04-4.09,4.08-3.97,5.22.21,10.45.06,16.2.06v34.13c2.36-.18,4.17-.32,6.41-.49.06-1.23.17-2.46.18-3.69.1-10.19.27-20.38.23-30.57-.01-2.73.75-3.77,3.58-3.66,4.9.2,9.81.12,14.72.03,2.08-.04,2.95.68,2.94,2.83-.04,19.21-.04,38.42,0,57.63,0,2.11-.82,2.87-2.93,2.86-23.37-.05-46.74-.05-70.11,0-2.06,0-2.99-.59-2.99-2.76.06-19.33.07-38.65.1-57.98,0-.22.14-.44.32-.99h20.69v36.43ZM104.67,334.68c0,8.14,0,15.98,0,23.82q0,10.6-10.66,9.57c-.11-.01-.22-.08-.95-.38v-36.35h-16.12v56.54h70.76v-57.47h-16c-.07,1.54-.17,2.81-.18,4.08-.06,10.07-.12,20.14-.14,30.21,0,1.61.05,3.23-2.09,3.3-2.97.1-5.95.03-9.45.03v-33.34h-15.17Z"/>
  <path class="cls-1" d="M108.15,73.61c-4.96,0-9.93.07-14.89-.02-6.14-.12-12.27-.37-18.41-.56-.16-6.18-.32-12.35-.47-18.53-.02-.7.03-1.41,0-2.11-.1-1.9.66-2.71,2.67-2.7,23.6.05,47.21,0,70.81.13.84,0,2.36,1.52,2.39,2.37.21,6.55.26,13.12,0,19.67-.05,1.21-1.5,2.78-2.71,3.45-9.66,5.38-19.42,10.59-29.15,15.86-.88.47-1.72,1.01-2.45,2.13,3.79,0,7.57,0,11.36,0,6.54,0,13.09.08,19.63-.04,2.59-.05,3.54.91,3.49,3.49-.12,5.85-.11,11.71-.02,17.57.03,2.06-.56,2.94-2.76,2.93-23.49-.05-46.97-.05-70.46.01-2.15,0-2.86-.77-2.82-2.87.13-6.56,0-13.12.29-19.67.06-1.25,1.31-2.92,2.47-3.56,9.28-5.14,18.68-10.08,28.04-15.09,1.08-.58,2.12-1.21,3.18-1.82-.06-.22-.12-.43-.18-.65ZM77.01,114.67c1.28.06,2.53.16,3.78.16,7.48.02,14.96,0,22.44,0,13.79,0,27.58.03,41.37-.06,1.12,0,3.17-.9,3.19-1.44.24-5.67.15-11.36.15-17.13-13.58-.35-26.63.37-39.71-1.35.82-1.28,1.71-1.96,2.67-2.48,11.38-6.19,22.78-12.34,34.14-18.58,1.12-.62,2.75-1.73,2.79-2.67.25-6.16.13-12.33.13-18.57h-71.03v18.9h38.83c.08.46.15.92.23,1.39-1.22.76-2.39,1.61-3.66,2.28-10.98,5.88-22,11.69-32.95,17.65-1.03.56-2.22,1.98-2.26,3.03-.21,6.17-.1,12.36-.1,18.86Z"/>
  <path class="cls-1" d="M74.43,549c0-7.42-.08-15.12.15-22.81.02-.64,2.15-1.73,3.31-1.75,12.27-.15,24.53-.11,36.8-.16,2.8-.01,5.61-.06,8.4-.3,5.14-.44,7.94-3.51,7.93-8.44-.01-4.48-3.3-8.47-7.84-8.71-8.27-.45-16.55-.58-24.83-.75-7-.15-14.01-.18-21.02-.23-1.71-.01-2.97-.31-2.96-2.45.04-7.37.02-14.74.02-22.53,1.61-.09,2.96-.23,4.31-.23,11.92.03,23.83.07,35.75.13,3.81.02,7.64-.15,11.42.2,15.25,1.42,25.09,11.59,25.62,27.17.25,7.29.23,14.9-1.56,21.88-2.89,11.24-11.53,18.88-24.55,18.96-16.77.1-33.54.02-50.95.02ZM76.86,547.19c3.63,0,6.88.05,10.12,0,13.31-.26,26.62-.45,39.92-.87,11.64-.37,19.96-9.48,21.32-19.74.99-7.44.37-15.13.09-22.69-.18-5.11-2.72-9.33-6.29-12.94-5.13-5.19-11.34-7.33-18.62-7.35-14.13-.04-28.26-.41-42.39-.64-1.35-.02-2.7,0-4.04,0v20.31c1.53,0,2.8-.02,4.07,0,13.77.23,27.55.41,41.32.74,4.5.11,8.47,2.07,10.07,6.31,3.27,8.63-.84,16.54-11.06,16.32-11.56-.25-23.13.11-34.69.25-3.23.04-6.46.28-9.82.44v19.86Z"/>
  <path class="cls-1" d="M74.4,623.58c0-7.97-.08-15.34.13-22.7.02-.69,1.79-1.88,2.78-1.91,6.16-.18,12.33-.09,18.86-.84-2.37-1.89-4.71-3.8-7.11-5.66-4.16-3.22-8.39-6.34-12.47-9.65-.98-.79-2.08-2.16-2.1-3.29-.17-8.66-.09-17.33-.06-26,0-.53.27-1.05.65-2.44,9.97,8.91,19.48,17.41,29.23,26.12,4.15-2.76,8.31-5.51,12.46-8.28,9.82-6.54,19.62-13.1,29.46-19.59.9-.6,2.07-.78,3.12-1.16.3,1.05.83,2.11.85,3.16.11,7.38.02,14.76.22,22.13.07,2.57-.85,4.08-2.99,5.37-7.18,4.31-14.27,8.77-21.39,13.19-.98.61-1.94,1.26-3.06,1.99,2.44,3.22,4.99,5.3,9.32,4.94,4.99-.41,10.04,0,15.06-.13,2.31-.06,3.07.8,3.03,3.07-.11,6.21-.18,12.42.02,18.62.1,3.02-1.48,3.08-3.7,3.07-20.91-.04-41.83-.03-62.74-.03-3.01,0-6.03,0-9.57,0ZM147.95,551.51c-1.64.97-2.54,1.45-3.37,2-12.49,8.32-25.01,16.6-37.43,25.01-2.23,1.51-3.72,1.49-5.75-.37-7.4-6.81-14.96-13.44-22.48-20.12-.54-.48-1.21-.81-2.21-1.46,0,6.95.14,13.37-.07,19.79-.09,2.69.94,4.27,2.99,5.8,6.93,5.16,13.74,10.46,20.56,15.76.77.6,1.25,1.56,1.86,2.36-.15.33-.3.66-.45.99h-24.57v19.98c12.34,0,24.36,0,36.38,0,10.52,0,21.03.05,31.55-.08,1.01-.01,2.84-1.15,2.87-1.83.23-5.82.13-11.65.13-17.98-4.98,0-9.65-.38-14.24.1-5.31.55-9.11-1.44-12.64-5.14-2.05-2.15-2.01-3.1.57-4.63,7.92-4.7,15.73-9.6,23.5-14.55,1.16-.74,2.62-2.16,2.66-3.31.24-7.21.12-14.42.12-22.32Z"/>
  <path class="cls-1" d="M74.37,299.75c14.54,0,28.32,0,42.11,0,1.99,0,3.98,0,5.96-.16,5.3-.4,8.9-4.71,8.46-10.01-.36-4.25-2.14-6.51-6.34-7.07-4.5-.6-9.06-.91-13.6-1-10.98-.23-21.97-.26-32.96-.39-1.03-.01-2.06-.12-3.58-.22,0-7.6-.06-15.05.1-22.5.01-.67,1.46-1.88,2.24-1.88,14.12.09,28.24.2,42.35.59,4.71.13,9.57.44,14.08,1.68,10.91,3,16.49,11.18,17.89,21.87,1.13,8.63,1.56,17.35-1.36,26-3.51,10.39-14.56,17.39-24.62,17.44-15.66.08-31.32.29-46.98.6-2.87.06-3.89-.7-3.8-3.68.2-6.87.06-13.75.06-21.27ZM76.82,321.92c1.23.06,2.13.15,3.04.14,14.72-.09,29.44-.15,44.16-.31,9.97-.11,20.25-6.18,23.48-16.61,2.62-8.44,2.21-16.98.83-25.34-1.04-6.29-3.57-12.75-9.94-15.75-4.53-2.13-9.58-4.06-14.49-4.29-13.87-.67-27.79-.41-41.69-.52-1.72-.01-3.43,0-5.28,0v19.61c2.17,0,4.13-.03,6.08,0,13.54.26,27.08.37,40.6.95,2.52.11,5.46,1.54,7.32,3.3,3.65,3.45,3.32,8.17,1.57,12.4-1.77,4.29-5.38,6.61-10.18,6.64-13.79.06-27.57.1-41.36.15-1.34,0-2.69,0-4.14,0v19.63Z"/>
  <path class="cls-1" d="M149.69,450.52c-3.06,0-6.09,0-9.12,0-20.81,0-41.62-.05-62.42.06-2.83.01-3.94-.69-3.83-3.69.21-5.73.18-11.49,0-17.22-.09-2.88.8-3.83,3.77-3.81,15.66.14,31.33.06,46.99.06,1.25,0,2.5,0,4.04,0v-30.86c1.35-.18,2.45-.46,3.55-.45,4.91.05,9.82.07,14.72.39.98.06,2.69,1.35,2.7,2.09.16,17.46.14,34.91.13,52.37,0,.2-.19.41-.51,1.06ZM131.61,397.35c0,1.4,0,2.66,0,3.92,0,7.49,0,14.99,0,22.48q0,4.95-5.1,4.96c-15.3,0-30.6,0-45.91,0-1.23,0-2.46,0-3.65,0v19.12h70.62v-50.48h-15.96Z"/>
  <path class="cls-2" d="M76.85,180.94v-56.42h16.13c0,1.87,0,3.7,0,5.53,0,9.38.07,18.75-.03,28.12-.03,2.48.59,3.53,3.32,3.55,8.4.04,8.4.15,8.4-8.21,0-8.29,0-16.58,0-25.07h15.41c0,1.38,0,2.63,0,3.87,0,8.67.1,17.35-.06,26.02-.05,2.68.88,3.39,3.42,3.41,8.17.06,8.17.15,8.17-8.08,0-9.02,0-18.05.01-27.07,0-1.14,0-2.28,0-3.64h16.01v58h-70.79Z"/>
  <path class="cls-2" d="M76.72,253.23c0-6.82-.09-12.79.09-18.75.03-.9,1.14-2.32,2.01-2.55,12.67-3.42,25.39-6.66,38.08-10.02,1.13-.3,2.14-1.08,3.2-1.64-1-.78-1.89-1.98-3.02-2.29-12.52-3.42-25.07-6.79-37.66-9.96-2.19-.55-2.8-1.41-2.75-3.53.13-5.61.04-11.22.04-17.43,5.42,1.64,10.41,3.13,15.38,4.65,17.58,5.37,35.14,10.81,52.76,16.06,2.3.69,3.25,1.53,3.17,4.02-.18,5.74-.14,11.49,0,17.23.05,2.17-.73,2.98-2.8,3.56-19.69,5.54-39.36,11.18-59.01,16.89-3.03.88-5.91,2.31-9.5,3.75Z"/>
  <path class="cls-2" d="M104.67,334.68h15.17v33.34c3.49,0,6.47.07,9.45-.03,2.14-.07,2.09-1.69,2.09-3.3.02-10.07.08-20.14.14-30.21,0-1.27.11-2.54.18-4.08h16v57.47h-70.76v-56.54h16.12v36.35c.73.3.84.37.95.38q10.66,1.02,10.66-9.57c0-7.84,0-15.67,0-23.82Z"/>
  <path class="cls-2" d="M77.01,114.67c0-6.51-.11-12.69.1-18.86.04-1.06,1.23-2.47,2.26-3.03,10.94-5.96,21.96-11.77,32.95-17.65,1.26-.68,2.44-1.52,3.66-2.28-.08-.46-.15-.92-.23-1.39h-38.83v-18.9h71.03c0,6.24.12,12.41-.13,18.57-.04.94-1.67,2.05-2.79,2.67-11.35,6.24-22.76,12.38-34.14,18.58-.97.53-1.86,1.2-2.67,2.48,13.07,1.72,26.13.99,39.71,1.35,0,5.78.09,11.46-.15,17.13-.02.55-2.08,1.43-3.19,1.44-13.79.1-27.58.06-41.37.06-7.48,0-14.96,0-22.44,0-1.25,0-2.5-.1-3.78-.16Z"/>
  <path class="cls-2" d="M76.86,547.19v-19.86c3.37-.15,6.59-.39,9.82-.44,11.56-.15,23.13-.5,34.69-.25,10.22.22,14.33-7.69,11.06-16.32-1.61-4.24-5.58-6.21-10.07-6.31-13.77-.33-27.55-.51-41.32-.74-1.27-.02-2.53,0-4.07,0v-20.31c1.35,0,2.69-.02,4.04,0,14.13.23,28.26.6,42.39.64,7.27.02,13.48,2.16,18.62,7.35,3.56,3.6,6.11,7.83,6.29,12.94.27,7.57.89,15.25-.09,22.69-1.36,10.25-9.68,19.36-21.32,19.74-13.3.43-26.61.61-39.92.87-3.24.06-6.49,0-10.12,0Z"/>
  <path class="cls-2" d="M147.95,551.51c0,7.9.12,15.12-.12,22.32-.04,1.15-1.5,2.57-2.66,3.31-7.77,4.95-15.58,9.85-23.5,14.55-2.58,1.53-2.62,2.48-.57,4.63,3.52,3.7,7.32,5.69,12.64,5.14,4.59-.48,9.26-.1,14.24-.1,0,6.33.1,12.16-.13,17.98-.03.67-1.86,1.81-2.87,1.83-10.52.13-21.03.08-31.55.08-12.02,0-24.04,0-36.38,0v-19.98h24.57c.15-.33.3-.66.45-.99-.61-.79-1.1-1.76-1.86-2.36-6.81-5.3-13.63-10.61-20.56-15.76-2.05-1.53-3.07-3.11-2.99-5.8.21-6.41.07-12.84.07-19.79,1,.65,1.67.98,2.21,1.46,7.52,6.68,15.08,13.31,22.48,20.12,2.03,1.86,3.52,1.88,5.75.37,12.42-8.42,24.94-16.7,37.43-25.01.84-.56,1.73-1.03,3.37-2Z"/>
  <path class="cls-2" d="M76.82,321.92v-19.63c1.45,0,2.8,0,4.14,0,13.79-.05,27.57-.09,41.36-.15,4.8-.02,8.41-2.35,10.18-6.64,1.75-4.23,2.08-8.95-1.57-12.4-1.86-1.76-4.8-3.2-7.32-3.3-13.52-.57-27.07-.69-40.6-.95-1.95-.04-3.91,0-6.08,0v-19.61c1.85,0,3.56-.01,5.28,0,13.9.11,27.82-.14,41.69.52,4.91.24,9.96,2.16,14.49,4.29,6.37,3,8.9,9.46,9.94,15.75,1.38,8.36,1.79,16.91-.83,25.34-3.23,10.43-13.51,16.5-23.48,16.61-14.72.16-29.44.22-44.16.31-.91,0-1.82-.08-3.04-.14Z"/>
  <path class="cls-2" d="M131.61,397.35h15.96v50.48h-70.62v-19.12c1.19,0,2.42,0,3.65,0,15.3,0,30.6,0,45.91,0q5.1,0,5.1-4.96c0-7.49,0-14.99,0-22.48,0-1.26,0-2.52,0-3.92Z"/>
</svg>