<?xml version="1.0" encoding="UTF-8"?>
<svg id="Layer_labo" xmlns="http://www.w3.org/2000/svg" viewBox="-5 643 84 84">
  <defs>
    <style>
      .cls-8 { fill: none; stroke: #231e21; stroke-miterlimit: 10; stroke-width: .5px; }
      .cls-9 { fill: #231f20; stroke-width: 0px; }
      .cls-10 { fill: #fff; stroke-width: 0px; }
      #labo-svg .labo-outer { stroke-width: 1px; vector-effect: non-scaling-stroke; }
    </style>
  </defs>
  <path class="cls-9" d="M41.79,721.18c4.33-.51,8.53-1.59,12.39-3.75.45-.25.93-.45,1.38-.7,4.37-2.42,8.13-5.56,11.21-9.5,2.54-3.24,4.59-6.74,5.95-10.64,1.08-3.11,1.83-6.28,2.12-9.57.41-4.59-.03-9.11-1.15-13.56-.78-3.07-2.11-5.94-3.59-8.72-2.25-4.24-5.51-7.67-9.11-10.76-2.11-1.81-4.49-3.26-7.04-4.44-3.31-1.54-6.71-2.74-10.33-3.25-2.02-.28-4.06-.39-5.99-.56h0c-1.74.14-3.36.24-4.98.42-3.63.42-7.11,1.4-10.42,2.94-3.52,1.63-6.8,3.62-9.55,6.4-.91.93-1.91,1.77-2.79,2.73-2.01,2.18-3.69,4.58-5.07,7.22-1.77,3.39-3.07,6.92-3.82,10.66-.59,2.99-.82,6.01-.74,9.05.11,4.35,1.09,8.54,2.7,12.57,1.2,3,2.63,5.87,4.71,8.38,1.3,1.57,2.55,3.2,3.97,4.65,3.35,3.42,7.41,5.84,11.73,7.79,1.68.76,3.47,1.33,5.25,1.8,4.32,1.12,8.74,1.38,13.16.85"/>
  <path class="cls-8 labo-outer" d="M41.79,721.18c4.33-.51,8.53-1.59,12.39-3.75.45-.25.93-.45,1.38-.7,4.37-2.42,8.13-5.56,11.21-9.5,2.54-3.24,4.59-6.74,5.95-10.64,1.08-3.11,1.83-6.28,2.12-9.57.41-4.59-.03-9.11-1.15-13.56-.78-3.07-2.11-5.94-3.59-8.72-2.25-4.24-5.51-7.67-9.11-10.76-2.11-1.81-4.49-3.26-7.04-4.44-3.31-1.54-6.71-2.74-10.33-3.25-2.02-.28-4.06-.39-5.99-.56h0c-1.74.14-3.36.24-4.98.42-3.63.42-7.11,1.4-10.42,2.94-3.52,1.63-6.8,3.62-9.55,6.4-.91.93-1.91,1.77-2.79,2.73-2.01,2.18-3.69,4.58-5.07,7.22-1.77,3.39-3.07,6.92-3.82,10.66-.59,2.99-.82,6.01-.74,9.05.11,4.35,1.09,8.54,2.7,12.57,1.2,3,2.63,5.87,4.71,8.38,1.3,1.57,2.55,3.2,3.97,4.65,3.35,3.42,7.41,5.84,11.73,7.79,1.68.76,3.47,1.33,5.25,1.8,4.32,1.12,8.74,1.38,13.16.85"/>
  <path class="cls-10" d="M41.79,721.17c-4.42.52-8.84.27-13.16-.85-1.79-.46-3.57-1.04-5.25-1.8-4.33-1.95-8.38-4.37-11.73-7.79-1.42-1.45-2.67-3.09-3.97-4.65-2.08-2.5-3.51-5.38-4.71-8.38-1.61-4.03-2.59-8.22-2.7-12.57-.08-3.03.14-6.06.74-9.05.75-3.75,2.05-7.28,3.82-10.66,1.38-2.64,3.07-5.04,5.07-7.22.88-.96,1.88-1.8,2.79-2.73,2.75-2.78,6.03-4.77,9.55-6.4,3.31-1.53,6.79-2.52,10.42-2.94,1.61-.19,3.24-.28,4.98-.43h0c1.93.18,3.98.28,5.99.56,3.61.51,7.02,1.71,10.33,3.25,2.55,1.19,4.93,2.63,7.04,4.44,3.6,3.09,6.86,6.52,9.11,10.76,1.48,2.79,2.81,5.65,3.59,8.72,1.12,4.45,1.56,8.97,1.15,13.57-.29,3.29-1.04,6.46-2.12,9.57-1.35,3.91-3.41,7.4-5.95,10.64-3.09,3.94-6.84,7.09-11.21,9.5-.45.25-.93.44-1.38.7-3.85,2.16-8.05,3.24-12.39,3.75"/>
  <path class="cls-8" d="M41.79,721.17c-4.42.52-8.84.27-13.16-.85-1.79-.46-3.57-1.04-5.25-1.8-4.33-1.95-8.38-4.37-11.73-7.79-1.42-1.45-2.67-3.09-3.97-4.65-2.08-2.5-3.51-5.38-4.71-8.38-1.61-4.03-2.59-8.22-2.7-12.57-.08-3.03.14-6.06.74-9.05.75-3.75,2.05-7.28,3.82-10.66,1.38-2.64,3.07-5.04,5.07-7.22.88-.96,1.88-1.8,2.79-2.73,2.75-2.78,6.03-4.77,9.55-6.4,3.31-1.53,6.79-2.52,10.42-2.94,1.61-.19,3.24-.28,4.98-.43h0c1.93.18,3.98.28,5.99.56,3.61.51,7.02,1.71,10.33,3.25,2.55,1.19,4.93,2.63,7.04,4.44,3.6,3.09,6.86,6.52,9.11,10.76,1.48,2.79,2.81,5.65,3.59,8.72,1.12,4.45,1.56,8.97,1.15,13.57-.29,3.29-1.04,6.46-2.12,9.57-1.35,3.91-3.41,7.4-5.95,10.64-3.09,3.94-6.84,7.09-11.21,9.5-.45.25-.93.44-1.38.7-3.85,2.16-8.05,3.24-12.39,3.75"/>
  <path class="cls-10" d="M71.8,683.62c-.06,0-.11,0-.17-.02.03-3.28-.34-6.49-1.25-9.65-.98-3.41-2.37-6.63-4.22-9.63-2.45-3.97-5.71-7.2-9.37-10-2.78-2.12-5.95-3.54-9.27-4.6-2.98-.95-6.02-1.44-9.16-1.56-2.75-.1-5.46.07-8.12.66-4.95,1.08-9.61,2.89-13.56,6.25-1.05.89-2.16,1.7-3.16,2.64-2.37,2.23-4.32,4.81-5.98,7.64-1.98,3.39-3.38,6.98-4.17,10.83-.73,3.59-.96,7.21-.62,10.85.33,3.58,1.24,7.02,2.6,10.33,2.18,5.29,5.46,9.79,9.75,13.52,4.43,3.85,9.64,6.13,15.26,7.5,1.4.34,2.85.54,4.28.59,3.39.11,6.75.04,10.09-.84,7.14-1.89,13.33-5.29,18.19-11.02,2.72-3.21,4.96-6.7,6.35-10.71.65-1.88,1.31-3.78,1.68-5.72.45-2.32.59-4.69.86-7.04h0Z"/>
  <path class="cls-8" d="M71.8,683.62c-.06,0-.11,0-.17-.02.03-3.28-.34-6.49-1.25-9.65-.98-3.41-2.37-6.63-4.22-9.63-2.45-3.97-5.71-7.2-9.37-10-2.78-2.12-5.95-3.54-9.27-4.6-2.98-.95-6.02-1.44-9.16-1.56-2.75-.1-5.46.07-8.12.66-4.95,1.08-9.61,2.89-13.56,6.25-1.05.89-2.16,1.7-3.16,2.64-2.37,2.23-4.32,4.81-5.98,7.64-1.98,3.39-3.38,6.98-4.17,10.83-.73,3.59-.96,7.21-.62,10.85.33,3.58,1.24,7.02,2.6,10.33,2.18,5.29,5.46,9.79,9.75,13.52,4.43,3.85,9.64,6.13,15.26,7.5,1.4.34,2.85.54,4.28.59,3.39.11,6.75.04,10.09-.84,7.14-1.89,13.33-5.29,18.19-11.02,2.72-3.21,4.96-6.7,6.35-10.71.65-1.88,1.31-3.78,1.68-5.72.45-2.32.59-4.69.86-7.04h0Z"/>
  <path class="cls-9" d="M62.17,699.04c.75-1.17.75-1.14,1.97-.46.87.49,1.77.92,2.69,1.39.31-.6.58-1.12.9-1.74-4.22-2.2-8.4-4.38-12.64-6.58-.3.59-.57,1.12-.86,1.7,1.35.7,2.64,1.37,3.99,2.07-.34.5-.63.96-.96,1.4-.84,1.11-1.59,2.31-2.55,3.3-3.89,4.02-8.6,6.49-14.22,7.09-2.84.3-5.67.24-8.46-.48-6.01-1.54-10.77-4.81-14.13-10.03-1.25-1.94-2.23-4.01-2.92-6.21-.14-.45-.01-.62.4-.66.63-.06,1.26-.12,1.98-.18h0c-1.91-2.96-3.78-5.84-5.75-8.9-1.64,3.25-3.19,6.34-4.77,9.5.56-.03,1-.04,1.45-.06,1.18-.05,1.1-.03,1.49,1.06.74,2.08,1.43,4.19,2.41,6.15,2.22,4.45,5.61,7.95,9.76,10.64,6.29,4.08,13.23,5.4,20.64,4.2,5.28-.85,9.88-3.13,13.89-6.6M9.08,690.57c-.67.04-1.36.09-2.06.12-.74.03-.83-.11-.5-.76,1.34-2.69,2.69-5.38,4.04-8.06.25-.49.54-.96.81-1.44.18-.32.38-.27.56,0,1.34,2.08,2.68,4.17,4.03,6.25.62.96,1.26,1.92,1.89,2.88.06.1.11.21.25.48-.93.09-1.77.17-2.61.24,1.85,6.76,7.46,13.84,16.64,16.01,11.08,2.62,21-2.8,25.4-10.74-.99-.51-1.99-1.03-2.98-1.54-.09-.05-.19-.08-.28-.13-.68-.37-.68-.37-.29-1.04.23-.41.5-.82.64-1.26.16-.51.41-.46.78-.27,1.68.86,3.37,1.71,5.05,2.58,1.7.87,3.4,1.75,5.09,2.65.81.43,1.61.87,2.39,1.35.13.08.23.42.17.57-.23.55-.53,1.06-.8,1.6-.19.37-.44.42-.81.22-1.13-.59-2.27-1.15-3.36-1.7-8.08,11.81-19.03,17.04-33.18,13.42-11.09-2.83-17.76-10.49-20.85-21.43Z"/>
  <path class="cls-8" d="M62.17,699.04c.75-1.17.75-1.14,1.97-.46.87.49,1.77.92,2.69,1.39.31-.6.58-1.12.9-1.74-4.22-2.2-8.4-4.38-12.64-6.58-.3.59-.57,1.12-.86,1.7,1.35.7,2.64,1.37,3.99,2.07-.34.5-.63.96-.96,1.4-.84,1.11-1.59,2.31-2.55,3.3-3.89,4.02-8.6,6.49-14.22,7.09-2.84.3-5.67.24-8.46-.48-6.01-1.54-10.77-4.81-14.13-10.03-1.25-1.94-2.23-4.01-2.92-6.21-.14-.45-.01-.62.4-.66.63-.06,1.26-.12,1.98-.18h0c-1.91-2.96-3.78-5.84-5.75-8.9-1.64,3.25-3.19,6.34-4.77,9.5.56-.03,1-.04,1.45-.06,1.18-.05,1.1-.03,1.49,1.06.74,2.08,1.43,4.19,2.41,6.15,2.22,4.45,5.61,7.95,9.76,10.64,6.29,4.08,13.23,5.4,20.64,4.2,5.28-.85,9.88-3.13,13.89-6.6M9.08,690.57c-.67.04-1.36.09-2.06.12-.74.03-.83-.11-.5-.76,1.34-2.69,2.69-5.38,4.04-8.06.25-.49.54-.96.81-1.44.18-.32.38-.27.56,0,1.34,2.08,2.68,4.17,4.03,6.25.62.96,1.26,1.92,1.89,2.88.06.1.11.21.25.48-.93.09-1.77.17-2.61.24,1.85,6.76,7.46,13.84,16.64,16.01,11.08,2.62,21-2.8,25.4-10.74-.99-.51-1.99-1.03-2.98-1.54-.09-.05-.19-.08-.28-.13-.68-.37-.68-.37-.29-1.04.23-.41.5-.82.64-1.26.16-.51.41-.46.78-.27,1.68.86,3.37,1.71,5.05,2.58,1.7.87,3.4,1.75,5.09,2.65.81.43,1.61.87,2.39,1.35.13.08.23.42.17.57-.23.55-.53,1.06-.8,1.6-.19.37-.44.42-.81.22-1.13-.59-2.27-1.15-3.36-1.7-8.08,11.81-19.03,17.04-33.18,13.42-11.09-2.83-17.76-10.49-20.85-21.43Z"/>
  <path class="cls-9" d="M46.87,685.54c-1.52-.9-3.08-1.84-4.71-2.8-.43.46-.94,1.01-1.44,1.54.35.32.58.57.86.77.25.19.54.45.82.46,1.52.05,3.05.02,4.47.02M43.17,685.95c3.88,3.16,13.31,4.57,20.11-1.71-.54-.51-1.09-1.03-1.59-1.51-.85.53-1.7,1.1-2.58,1.61-2.68,1.55-5.56,2.11-8.67,1.85-2.36-.19-4.73-.17-7.27-.24h0ZM37.24,686.02c0,3.61,0,7.14,0,10.67,0,.06-.08.12-.21.17-.19-3.59-.08-7.18-.15-10.88h-11.24c-.01-.09-.02-.17-.03-.26.24-.04.49-.12.73-.13,2.96-.02,5.92-.03,8.87-.04.53,0,1.06,0,1.68,0v-10.59c0-.14-.03-.29,0-.42.04-.13.14-.25.21-.38.07.12.19.24.2.36.02.58,0,1.17,0,1.75v9.21h4.05c-.35-.32-.65-.56-.92-.85-.11-.12-.22-.4-.16-.47.62-.73,1.28-1.43,1.95-2.15.47.38.84.69,1.23.98,3.89,2.85,8.18,3.53,12.78,2.15,1.79-.54,3.41-1.47,4.84-2.67.41-.35.7-.39,1.07.03.45.52.94,1,1.44,1.49.27.26.25.45-.04.68-2.2,1.71-4.49,3.24-7.3,3.88-4.66,1.06-9.08.54-13.16-1.94-.75-.46-1.43-.63-2.26-.61-1.15.03-2.3,0-3.6,0h0Z"/>
  <path class="cls-8" d="M46.87,685.54c-1.52-.9-3.08-1.84-4.71-2.8-.43.46-.94,1.01-1.44,1.54.35.32.58.57.86.77.25.19.54.45.82.46,1.52.05,3.05.02,4.47.02ZM43.17,685.95c3.88,3.16,13.31,4.57,20.11-1.71-.54-.51-1.09-1.03-1.59-1.51-.85.53-1.7,1.1-2.58,1.61-2.68,1.55-5.56,2.11-8.67,1.85-2.36-.19-4.73-.17-7.27-.24h0ZM37.24,686.02c0,3.61,0,7.14,0,10.67,0,.06-.08.12-.21.17-.19-3.59-.08-7.18-.15-10.88h-11.24c-.01-.09-.02-.17-.03-.26.24-.04.49-.12.73-.13,2.96-.02,5.92-.03,8.87-.04.53,0,1.06,0,1.68,0v-10.59c0-.14-.03-.29,0-.42.04-.13.14-.25.21-.38.07.12.19.24.2.36.02.58,0,1.17,0,1.75v9.21h4.05c-.35-.32-.65-.56-.92-.85-.11-.12-.22-.4-.16-.47.62-.73,1.28-1.43,1.95-2.15.47.38.84.69,1.23.98,3.89,2.85,8.18,3.53,12.78,2.15,1.79-.54,3.41-1.47,4.84-2.67.41-.35.7-.39,1.07.03.45.52.94,1,1.44,1.49.27.26.25.45-.04.68-2.2,1.71-4.49,3.24-7.3,3.88-4.66,1.06-9.08.54-13.16-1.94-.75-.46-1.43-.63-2.26-.61-1.15.03-2.3,0-3.6,0h0Z"/>
  <path class="cls-9" d="M24.19,665.08c-3.09.11-6.28,2.54-6.29,6.16-.01,3.32,2.33,6.35,5.9,6.51,3.74.17,6.58-2.85,6.54-6.47-.04-3.44-2.65-5.9-6.16-6.21M17.45,671.23c.02-3.67,3.55-6.6,6.44-6.62,3.85-.03,6.93,3.11,6.92,6.62-.02,4-2.81,7-6.78,6.96-3.98-.04-6.43-3.23-6.57-6.96"/>
  <path class="cls-8" d="M24.19,665.08c-3.09.11-6.28,2.54-6.29,6.16-.01,3.32,2.33,6.35,5.9,6.51,3.74.17,6.58-2.85,6.54-6.47-.04-3.44-2.65-5.9-6.16-6.21ZM17.45,671.23c.02-3.67,3.55-6.6,6.44-6.62,3.85-.03,6.93,3.11,6.92,6.62-.02,4-2.81,7-6.78,6.96-3.98-.04-6.43-3.23-6.57-6.96Z"/>
  <path class="cls-9" d="M58.22,671.41c.3-3.17-2.81-6.42-6.57-6.34-2.96.06-5.89,3.11-5.82,6.24.08,3.52,2.58,6.43,6.28,6.47,3.29.03,6.31-3.11,6.11-6.37h0ZM52.36,664.68c3.36-.04,6.46,3.55,6.34,6.82-.15,4.14-3.51,6.79-6.71,6.71-4.28-.1-6.84-3.69-6.55-7.47.26-3.4,3.37-6.36,6.92-6.06h0Z"/>
  <path class="cls-8" d="M58.22,671.41c.3-3.17-2.81-6.42-6.57-6.34-2.96.06-5.89,3.11-5.82,6.24.08,3.52,2.58,6.43,6.28,6.47,3.29.03,6.31-3.11,6.11-6.37h0ZM52.36,664.68c3.36-.04,6.46,3.55,6.34,6.82-.15,4.14-3.51,6.79-6.71,6.71-4.28-.1-6.84-3.69-6.55-7.47.26-3.4,3.37-6.36,6.92-6.06h0Z"/>
  <path class="cls-9" d="M44.64,680.46c3.4,3.32,12.06,3.28,14.8-.04-.47-.5-.95-1-1.43-1.51-3.99,2.66-7.95,2.68-11.92,0-.48.52-.95,1.02-1.44,1.55M52.79,683.37c-2.5.31-4.73-.45-6.87-1.53-.58-.29-1.11-.68-1.63-1.06-.1-.07-.14-.38-.06-.47.43-.52.92-1,1.36-1.51.33-.39.6-.42,1.04-.09,2.21,1.65,4.75,2.23,7.47,1.53,1.25-.32,2.38-1.04,3.53-1.63.35-.18.51-.17.75.1.44.49.89.97,1.37,1.43.28.27.26.5-.05.7-1.28.89-2.58,1.72-4.16,2.08-.91.21-1.82.4-2.73.59-.01-.05-.02-.09-.03-.14h0Z"/>
  <path class="cls-8" d="M44.64,680.46c3.4,3.32,12.06,3.28,14.8-.04-.47-.5-.95-1-1.43-1.51-3.99,2.66-7.95,2.68-11.92,0-.48.52-.95,1.02-1.44,1.55ZM52.79,683.37c-2.5.31-4.73-.45-6.87-1.53-.58-.29-1.11-.68-1.63-1.06-.1-.07-.14-.38-.06-.47.43-.52.92-1,1.36-1.51.33-.39.6-.42,1.04-.09,2.21,1.65,4.75,2.23,7.47,1.53,1.25-.32,2.38-1.04,3.53-1.63.35-.18.51-.17.75.1.44.49.89.97,1.37,1.43.28.27.26.5-.05.7-1.28.89-2.58,1.72-4.16,2.08-.91.21-1.82.4-2.73.59-.01-.05-.02-.09-.03-.14h0Z"/>
  <path class="cls-10" d="M43.38,685.9c2.49.07,4.83.05,7.15.23,3.06.24,5.89-.28,8.52-1.75.86-.48,1.69-1.01,2.53-1.52.5.45,1.03.94,1.57,1.42-6.69,5.94-15.96,4.61-19.77,1.62h0Z"/>
  <path class="cls-8" d="M43.38,685.9c2.49.07,4.83.05,7.15.23,3.06.24,5.89-.28,8.52-1.75.86-.48,1.69-1.01,2.53-1.52.5.45,1.03.94,1.57,1.42-6.69,5.94-15.96,4.61-19.77,1.62h0Z"/>
  <path class="cls-10" d="M46.65,685.24c-1.3,0-2.7.02-4.09-.02-.26,0-.52-.23-.75-.39-.25-.17-.47-.39-.78-.66.46-.46.93-.92,1.32-1.31,1.49.82,2.92,1.61,4.31,2.37"/>
  <path class="cls-8" d="M46.65,685.24c-1.3,0-2.7.02-4.09-.02-.26,0-.52-.23-.75-.39-.25-.17-.47-.39-.78-.66.46-.46.93-.92,1.32-1.31,1.49.82,2.92,1.61,4.31,2.37Z"/>
  <path class="cls-10" d="M24.08,675.34c2.23,0,3.99-1.75,3.99-3.97s-1.8-3.87-4.26-3.87c-1.81,0-3.58,1.89-3.58,3.83,0,2.29,1.65,4.01,3.85,4.02M24.19,665.1c3.5.31,6.1,2.77,6.14,6.2.04,3.6-2.8,6.62-6.53,6.45-3.56-.17-5.9-3.18-5.89-6.5.01-3.62,3.19-6.04,6.27-6.15"/>
  <path class="cls-8" d="M24.08,675.34c2.23,0,3.99-1.75,3.99-3.97s-1.8-3.87-4.26-3.87c-1.81,0-3.58,1.89-3.58,3.83,0,2.29,1.65,4.01,3.85,4.02ZM24.19,665.1c3.5.31,6.1,2.77,6.14,6.2.04,3.6-2.8,6.62-6.53,6.45-3.56-.17-5.9-3.18-5.89-6.5.01-3.62,3.19-6.04,6.27-6.15Z"/>
  <path class="cls-10" d="M58.2,671.41c.2,3.25-2.81,6.39-6.09,6.36-3.69-.04-6.18-2.94-6.26-6.46-.07-3.12,2.85-6.16,5.8-6.22,3.74-.08,6.85,3.17,6.55,6.32h0Z"/>
  <path class="cls-8" d="M58.2,671.41c.2,3.25-2.81,6.39-6.09,6.36-3.69-.04-6.18-2.94-6.26-6.46-.07-3.12,2.85-6.16,5.8-6.22,3.74-.08,6.85,3.17,6.55,6.32h0Z"/>
  <path class="cls-10" d="M44.75,680.53c.48-.51.95-1,1.42-1.5,3.92,2.59,7.81,2.58,11.75,0,.48.49.94.98,1.41,1.46-2.69,3.21-11.23,3.25-14.58.04"/>
  <path class="cls-8" d="M44.75,680.53c.48-.51.95-1,1.42-1.5,3.92,2.59,7.81,2.58,11.75,0,.48.49.94.98,1.41,1.46-2.69,3.21-11.23,3.25-14.58.04Z"/>
  <path class="cls-9" d="M24.18,668.05c-1.7-.26-3.44,1.45-3.44,3.35s1.36,3.35,3.28,3.44c1.83.09,3.5-1.48,3.58-3.37.08-1.8-1.45-3.33-3.41-3.41h0ZM24.08,675.25c-2.15,0-3.76-1.69-3.76-3.93,0-1.89,1.73-3.74,3.5-3.74,2.41,0,4.16,1.6,4.16,3.78s-1.72,3.89-3.91,3.88"/>
  <path class="cls-8" d="M24.18,668.05c-1.7-.26-3.44,1.45-3.44,3.35s1.36,3.35,3.28,3.44c1.83.09,3.5-1.48,3.58-3.37.08-1.8-1.45-3.33-3.41-3.41h0ZM24.08,675.25c-2.15,0-3.76-1.69-3.76-3.93,0-1.89,1.73-3.74,3.5-3.74,2.41,0,4.16,1.6,4.16,3.78s-1.72,3.89-3.91,3.88Z"/>
  <path class="cls-10" d="M24.18,668.08c1.95.08,3.47,1.6,3.39,3.39-.08,1.88-1.74,3.43-3.55,3.34-1.9-.09-3.25-1.52-3.25-3.41s1.73-3.57,3.42-3.32h0Z"/>
  <path class="cls-8" d="M24.18,668.08c1.95.08,3.47,1.6,3.39,3.39-.08,1.88-1.74,3.43-3.55,3.34-1.9-.09-3.25-1.52-3.25-3.41s1.73-3.57,3.42-3.32h0Z"/>
</svg>
