<?xml version="1.0" encoding="utf-8"?>
<!-- Generator: Adobe Illustrator 28.2.0, SVG Export Plug-In . SVG Version: 6.00 Build 0)  -->
<svg version="1.1" id="Layer_labo" xmlns="http://www.w3.org/2000/svg" xmlns:xlink="http://www.w3.org/1999/xlink" x="0px" y="0px"
	 viewBox="0 0 84 84" style="enable-background:new 0 0 84 84;" xml:space="preserve">
<style type="text/css">
	.st0{fill:#231F20;}
	.st1{fill:none;stroke:#231E21;stroke-width:0.5;stroke-miterlimit:10;}
	.st2{fill:#eef0f2;stroke:#000000;stroke-width:2;stroke-miterlimit:10;}
	.st3{fill:#eef0f2;}
</style>
<path class="st0" d="M46.8,78.2c4.3-0.5,8.5-1.6,12.4-3.8c0.5-0.2,0.9-0.5,1.4-0.7c4.4-2.4,8.1-5.6,11.2-9.5
	c2.5-3.2,4.6-6.7,5.9-10.6c1.1-3.1,1.8-6.3,2.1-9.6c0.4-4.6,0-9.1-1.2-13.6c-0.8-3.1-2.1-5.9-3.6-8.7c-2.2-4.2-5.5-7.7-9.1-10.8
	c-2.1-1.8-4.5-3.3-7-4.4C55.6,5,52.2,3.8,48.6,3.3c-2-0.3-4.1-0.4-6-0.6l0,0c-1.7,0.1-3.4,0.2-5,0.4C34,3.6,30.5,4.5,27.2,6.1
	c-3.5,1.6-6.8,3.6-9.6,6.4c-0.9,0.9-1.9,1.8-2.8,2.7c-2,2.2-3.7,4.6-5.1,7.2C8.1,25.8,6.8,29.4,6,33.1c-0.6,3-0.8,6-0.7,9
	c0.1,4.3,1.1,8.5,2.7,12.6c1.2,3,2.6,5.9,4.7,8.4c1.3,1.6,2.6,3.2,4,4.7c3.4,3.4,7.4,5.8,11.7,7.8c1.7,0.8,3.5,1.3,5.2,1.8
	C37.9,78.5,42.4,78.7,46.8,78.2"/>
<path class="st1" d="M46.8,78.2c4.3-0.5,8.5-1.6,12.4-3.8c0.5-0.2,0.9-0.5,1.4-0.7c4.4-2.4,8.1-5.6,11.2-9.5
	c2.5-3.2,4.6-6.7,5.9-10.6c1.1-3.1,1.8-6.3,2.1-9.6c0.4-4.6,0-9.1-1.2-13.6c-0.8-3.1-2.1-5.9-3.6-8.7c-2.2-4.2-5.5-7.7-9.1-10.8
	c-2.1-1.8-4.5-3.3-7-4.4C55.6,5,52.2,3.8,48.6,3.3c-2-0.3-4.1-0.4-6-0.6l0,0c-1.7,0.1-3.4,0.2-5,0.4C34,3.6,30.5,4.5,27.2,6.1
	c-3.5,1.6-6.8,3.6-9.6,6.4c-0.9,0.9-1.9,1.8-2.8,2.7c-2,2.2-3.7,4.6-5.1,7.2C8.1,25.8,6.8,29.4,6,33.1c-0.6,3-0.8,6-0.7,9
	c0.1,4.3,1.1,8.5,2.7,12.6c1.2,3,2.6,5.9,4.7,8.4c1.3,1.6,2.6,3.2,4,4.7c3.4,3.4,7.4,5.8,11.7,7.8c1.7,0.8,3.5,1.3,5.2,1.8
	C37.9,78.5,42.4,78.7,46.8,78.2"/>
<path class="st2" d="M46.8,78.2c-4.4,0.5-8.8,0.3-13.2-0.8c-1.8-0.5-3.6-1-5.2-1.8c-4.3-2-8.4-4.4-11.7-7.8c-1.4-1.5-2.7-3.1-4-4.7
	c-2.1-2.5-3.5-5.4-4.7-8.4c-1.6-4-2.6-8.2-2.7-12.6c-0.1-3,0.1-6.1,0.7-9c0.8-3.8,2.1-7.3,3.8-10.7c1.4-2.6,3.1-5,5.1-7.2
	c0.9-1,1.9-1.8,2.8-2.7c2.8-2.8,6-4.8,9.5-6.4c3.3-1.5,6.8-2.5,10.4-2.9c1.6-0.2,3.2-0.3,5-0.4l0,0c1.9,0.2,4,0.3,6,0.6
	c3.6,0.5,7,1.7,10.3,3.2c2.5,1.2,4.9,2.6,7,4.4c3.6,3.1,6.9,6.5,9.1,10.8c1.5,2.8,2.8,5.7,3.6,8.7c1.1,4.5,1.6,9,1.2,13.6
	c-0.3,3.3-1,6.5-2.1,9.6c-1.3,3.9-3.4,7.4-5.9,10.6c-3.1,3.9-6.8,7.1-11.2,9.5c-0.5,0.2-0.9,0.4-1.4,0.7
	C55.3,76.6,51.1,77.7,46.8,78.2"/>
<path class="st1" d="M46.8,78.2c-4.4,0.5-8.8,0.3-13.2-0.8c-1.8-0.5-3.6-1-5.2-1.8c-4.3-2-8.4-4.4-11.7-7.8c-1.4-1.5-2.7-3.1-4-4.7
	c-2.1-2.5-3.5-5.4-4.7-8.4c-1.6-4-2.6-8.2-2.7-12.6c-0.1-3,0.1-6.1,0.7-9c0.8-3.8,2.1-7.3,3.8-10.7c1.4-2.6,3.1-5,5.1-7.2
	c0.9-1,1.9-1.8,2.8-2.7c2.8-2.8,6-4.8,9.5-6.4c3.3-1.5,6.8-2.5,10.4-2.9c1.6-0.2,3.2-0.3,5-0.4l0,0c1.9,0.2,4,0.3,6,0.6
	c3.6,0.5,7,1.7,10.3,3.2c2.5,1.2,4.9,2.6,7,4.4c3.6,3.1,6.9,6.5,9.1,10.8c1.5,2.8,2.8,5.7,3.6,8.7c1.1,4.5,1.6,9,1.2,13.6
	c-0.3,3.3-1,6.5-2.1,9.6c-1.3,3.9-3.4,7.4-5.9,10.6c-3.1,3.9-6.8,7.1-11.2,9.5c-0.5,0.2-0.9,0.4-1.4,0.7
	C55.3,76.6,51.1,77.7,46.8,78.2"/>
<path class="st3" d="M76.8,40.6c-0.1,0-0.1,0-0.2,0c0-3.3-0.3-6.5-1.2-9.7c-1-3.4-2.4-6.6-4.2-9.6c-2.4-4-5.7-7.2-9.4-10
	c-2.8-2.1-6-3.5-9.3-4.6c-3-1-6-1.4-9.2-1.6c-2.8-0.1-5.5,0.1-8.1,0.7c-5,1.1-9.6,2.9-13.6,6.2c-1,0.9-2.2,1.7-3.2,2.6
	c-2.4,2.2-4.3,4.8-6,7.6c-2,3.4-3.4,7-4.2,10.8c-0.7,3.6-1,7.2-0.6,10.8c0.3,3.6,1.2,7,2.6,10.3c2.2,5.3,5.5,9.8,9.8,13.5
	c4.4,3.8,9.6,6.1,15.3,7.5c1.4,0.3,2.8,0.5,4.3,0.6c3.4,0.1,6.8,0,10.1-0.8c7.1-1.9,13.3-5.3,18.2-11c2.7-3.2,5-6.7,6.3-10.7
	c0.7-1.9,1.3-3.8,1.7-5.7C76.4,45.4,76.5,43,76.8,40.6L76.8,40.6L76.8,40.6z"/>
<path class="st1" d="M76.8,40.6c-0.1,0-0.1,0-0.2,0c0-3.3-0.3-6.5-1.2-9.7c-1-3.4-2.4-6.6-4.2-9.6c-2.4-4-5.7-7.2-9.4-10
	c-2.8-2.1-6-3.5-9.3-4.6c-3-1-6-1.4-9.2-1.6c-2.8-0.1-5.5,0.1-8.1,0.7c-5,1.1-9.6,2.9-13.6,6.2c-1,0.9-2.2,1.7-3.2,2.6
	c-2.4,2.2-4.3,4.8-6,7.6c-2,3.4-3.4,7-4.2,10.8c-0.7,3.6-1,7.2-0.6,10.8c0.3,3.6,1.2,7,2.6,10.3c2.2,5.3,5.5,9.8,9.8,13.5
	c4.4,3.8,9.6,6.1,15.3,7.5c1.4,0.3,2.8,0.5,4.3,0.6c3.4,0.1,6.8,0,10.1-0.8c7.1-1.9,13.3-5.3,18.2-11c2.7-3.2,5-6.7,6.3-10.7
	c0.7-1.9,1.3-3.8,1.7-5.7C76.4,45.4,76.5,43,76.8,40.6L76.8,40.6L76.8,40.6z"/>
<path class="st0" d="M67.2,56c0.8-1.2,0.8-1.1,2-0.5c0.9,0.5,1.8,0.9,2.7,1.4c0.3-0.6,0.6-1.1,0.9-1.7c-4.2-2.2-8.4-4.4-12.6-6.6
	c-0.3,0.6-0.6,1.1-0.9,1.7c1.3,0.7,2.6,1.4,4,2.1c-0.3,0.5-0.6,1-1,1.4c-0.8,1.1-1.6,2.3-2.5,3.3c-3.9,4-8.6,6.5-14.2,7.1
	c-2.8,0.3-5.7,0.2-8.5-0.5c-6-1.5-10.8-4.8-14.1-10c-1.2-1.9-2.2-4-2.9-6.2c-0.1-0.5,0-0.6,0.4-0.7c0.6-0.1,1.3-0.1,2-0.2l0,0
	c-1.9-3-3.8-5.8-5.8-8.9c-1.6,3.2-3.2,6.3-4.8,9.5c0.6,0,1,0,1.5-0.1c1.2,0,1.1,0,1.5,1.1c0.7,2.1,1.4,4.2,2.4,6.2
	c2.2,4.5,5.6,8,9.8,10.6c6.3,4.1,13.2,5.4,20.6,4.2c5.3-0.8,9.9-3.1,13.9-6.6 M14.1,47.6c-0.7,0-1.4,0.1-2.1,0.1
	c-0.7,0-0.8-0.1-0.5-0.8c1.3-2.7,2.7-5.4,4-8.1c0.2-0.5,0.5-1,0.8-1.4c0.2-0.3,0.4-0.3,0.6,0c1.3,2.1,2.7,4.2,4,6.2
	c0.6,1,1.3,1.9,1.9,2.9c0.1,0.1,0.1,0.2,0.2,0.5c-0.9,0.1-1.8,0.2-2.6,0.2c1.8,6.8,7.5,13.8,16.6,16c11.1,2.6,21-2.8,25.4-10.7
	c-1-0.5-2-1-3-1.5c-0.1,0-0.2-0.1-0.3-0.1c-0.7-0.4-0.7-0.4-0.3-1c0.2-0.4,0.5-0.8,0.6-1.3c0.2-0.5,0.4-0.5,0.8-0.3
	c1.7,0.9,3.4,1.7,5,2.6c1.7,0.9,3.4,1.8,5.1,2.7c0.8,0.4,1.6,0.9,2.4,1.3c0.1,0.1,0.2,0.4,0.2,0.6c-0.2,0.5-0.5,1.1-0.8,1.6
	c-0.2,0.4-0.4,0.4-0.8,0.2c-1.1-0.6-2.3-1.2-3.4-1.7c-8.1,11.8-19,17-33.2,13.4C23.9,66.2,17.2,58.5,14.1,47.6L14.1,47.6z"/>
<path class="st1" d="M67.2,56c0.8-1.2,0.8-1.1,2-0.5c0.9,0.5,1.8,0.9,2.7,1.4c0.3-0.6,0.6-1.1,0.9-1.7c-4.2-2.2-8.4-4.4-12.6-6.6
	c-0.3,0.6-0.6,1.1-0.9,1.7c1.3,0.7,2.6,1.4,4,2.1c-0.3,0.5-0.6,1-1,1.4c-0.8,1.1-1.6,2.3-2.5,3.3c-3.9,4-8.6,6.5-14.2,7.1
	c-2.8,0.3-5.7,0.2-8.5-0.5c-6-1.5-10.8-4.8-14.1-10c-1.2-1.9-2.2-4-2.9-6.2c-0.1-0.5,0-0.6,0.4-0.7c0.6-0.1,1.3-0.1,2-0.2l0,0
	c-1.9-3-3.8-5.8-5.8-8.9c-1.6,3.2-3.2,6.3-4.8,9.5c0.6,0,1,0,1.5-0.1c1.2,0,1.1,0,1.5,1.1c0.7,2.1,1.4,4.2,2.4,6.2
	c2.2,4.5,5.6,8,9.8,10.6c6.3,4.1,13.2,5.4,20.6,4.2c5.3-0.8,9.9-3.1,13.9-6.6 M14.1,47.6c-0.7,0-1.4,0.1-2.1,0.1
	c-0.7,0-0.8-0.1-0.5-0.8c1.3-2.7,2.7-5.4,4-8.1c0.2-0.5,0.5-1,0.8-1.4c0.2-0.3,0.4-0.3,0.6,0c1.3,2.1,2.7,4.2,4,6.2
	c0.6,1,1.3,1.9,1.9,2.9c0.1,0.1,0.1,0.2,0.2,0.5c-0.9,0.1-1.8,0.2-2.6,0.2c1.8,6.8,7.5,13.8,16.6,16c11.1,2.6,21-2.8,25.4-10.7
	c-1-0.5-2-1-3-1.5c-0.1,0-0.2-0.1-0.3-0.1c-0.7-0.4-0.7-0.4-0.3-1c0.2-0.4,0.5-0.8,0.6-1.3c0.2-0.5,0.4-0.5,0.8-0.3
	c1.7,0.9,3.4,1.7,5,2.6c1.7,0.9,3.4,1.8,5.1,2.7c0.8,0.4,1.6,0.9,2.4,1.3c0.1,0.1,0.2,0.4,0.2,0.6c-0.2,0.5-0.5,1.1-0.8,1.6
	c-0.2,0.4-0.4,0.4-0.8,0.2c-1.1-0.6-2.3-1.2-3.4-1.7c-8.1,11.8-19,17-33.2,13.4C23.9,66.2,17.2,58.5,14.1,47.6L14.1,47.6z"/>
<path class="st0" d="M51.9,42.5c-1.5-0.9-3.1-1.8-4.7-2.8c-0.4,0.5-0.9,1-1.4,1.5c0.3,0.3,0.6,0.6,0.9,0.8c0.2,0.2,0.5,0.5,0.8,0.5
	C48.9,42.6,50.5,42.5,51.9,42.5 M48.2,43c3.9,3.2,13.3,4.6,20.1-1.7c-0.5-0.5-1.1-1-1.6-1.5c-0.9,0.5-1.7,1.1-2.6,1.6
	c-2.7,1.5-5.6,2.1-8.7,1.8C53.1,43,50.7,43,48.2,43L48.2,43L48.2,43z M42.2,43c0,3.6,0,7.1,0,10.7c0,0.1-0.1,0.1-0.2,0.2
	c-0.2-3.6-0.1-7.2-0.2-10.9H30.6c0-0.1,0-0.2,0-0.3c0.2,0,0.5-0.1,0.7-0.1c3,0,5.9,0,8.9,0c0.5,0,1.1,0,1.7,0V32c0-0.1,0-0.3,0-0.4
	c0-0.1,0.1-0.2,0.2-0.4c0.1,0.1,0.2,0.2,0.2,0.4c0,0.6,0,1.2,0,1.8v9.2h4c-0.3-0.3-0.7-0.6-0.9-0.8c-0.1-0.1-0.2-0.4-0.2-0.5
	c0.6-0.7,1.3-1.4,2-2.2c0.5,0.4,0.8,0.7,1.2,1c3.9,2.8,8.2,3.5,12.8,2.2c1.8-0.5,3.4-1.5,4.8-2.7c0.4-0.3,0.7-0.4,1.1,0
	c0.4,0.5,0.9,1,1.4,1.5c0.3,0.3,0.2,0.5,0,0.7c-2.2,1.7-4.5,3.2-7.3,3.9c-4.7,1.1-9.1,0.5-13.2-1.9c-0.8-0.5-1.4-0.6-2.3-0.6
	C44.7,43,43.5,43,42.2,43L42.2,43L42.2,43z"/>
<path class="st1" d="M51.9,42.5c-1.5-0.9-3.1-1.8-4.7-2.8c-0.4,0.5-0.9,1-1.4,1.5c0.3,0.3,0.6,0.6,0.9,0.8c0.2,0.2,0.5,0.5,0.8,0.5
	C48.9,42.6,50.5,42.5,51.9,42.5L51.9,42.5z M48.2,43c3.9,3.2,13.3,4.6,20.1-1.7c-0.5-0.5-1.1-1-1.6-1.5c-0.9,0.5-1.7,1.1-2.6,1.6
	c-2.7,1.5-5.6,2.1-8.7,1.8C53.1,43,50.7,43,48.2,43L48.2,43L48.2,43z M42.2,43c0,3.6,0,7.1,0,10.7c0,0.1-0.1,0.1-0.2,0.2
	c-0.2-3.6-0.1-7.2-0.2-10.9H30.6c0-0.1,0-0.2,0-0.3c0.2,0,0.5-0.1,0.7-0.1c3,0,5.9,0,8.9,0c0.5,0,1.1,0,1.7,0V32c0-0.1,0-0.3,0-0.4
	c0-0.1,0.1-0.2,0.2-0.4c0.1,0.1,0.2,0.2,0.2,0.4c0,0.6,0,1.2,0,1.8v9.2h4c-0.3-0.3-0.7-0.6-0.9-0.8c-0.1-0.1-0.2-0.4-0.2-0.5
	c0.6-0.7,1.3-1.4,2-2.2c0.5,0.4,0.8,0.7,1.2,1c3.9,2.8,8.2,3.5,12.8,2.2c1.8-0.5,3.4-1.5,4.8-2.7c0.4-0.3,0.7-0.4,1.1,0
	c0.4,0.5,0.9,1,1.4,1.5c0.3,0.3,0.2,0.5,0,0.7c-2.2,1.7-4.5,3.2-7.3,3.9c-4.7,1.1-9.1,0.5-13.2-1.9c-0.8-0.5-1.4-0.6-2.3-0.6
	C44.7,43,43.5,43,42.2,43L42.2,43L42.2,43z"/>
<path class="st0" d="M29.2,22.1c-3.1,0.1-6.3,2.5-6.3,6.2c0,3.3,2.3,6.3,5.9,6.5c3.7,0.2,6.6-2.8,6.5-6.5
	C35.3,24.8,32.7,22.4,29.2,22.1 M22.5,28.2c0-3.7,3.5-6.6,6.4-6.6c3.9,0,6.9,3.1,6.9,6.6c0,4-2.8,7-6.8,7
	C25.1,35.2,22.6,32,22.5,28.2"/>
<path class="st1" d="M29.2,22.1c-3.1,0.1-6.3,2.5-6.3,6.2c0,3.3,2.3,6.3,5.9,6.5c3.7,0.2,6.6-2.8,6.5-6.5
	C35.3,24.8,32.7,22.4,29.2,22.1L29.2,22.1z M22.5,28.2c0-3.7,3.5-6.6,6.4-6.6c3.9,0,6.9,3.1,6.9,6.6c0,4-2.8,7-6.8,7
	C25.1,35.2,22.6,32,22.5,28.2L22.5,28.2z"/>
<path class="st0" d="M63.2,28.4c0.3-3.2-2.8-6.4-6.6-6.3c-3,0.1-5.9,3.1-5.8,6.2c0.1,3.5,2.6,6.4,6.3,6.5
	C60.4,34.8,63.4,31.7,63.2,28.4L63.2,28.4L63.2,28.4z M57.4,21.7c3.4,0,6.5,3.5,6.3,6.8c-0.2,4.1-3.5,6.8-6.7,6.7
	c-4.3-0.1-6.8-3.7-6.5-7.5C50.7,24.3,53.8,21.4,57.4,21.7L57.4,21.7L57.4,21.7z"/>
<path class="st1" d="M63.2,28.4c0.3-3.2-2.8-6.4-6.6-6.3c-3,0.1-5.9,3.1-5.8,6.2c0.1,3.5,2.6,6.4,6.3,6.5
	C60.4,34.8,63.4,31.7,63.2,28.4L63.2,28.4L63.2,28.4z M57.4,21.7c3.4,0,6.5,3.5,6.3,6.8c-0.2,4.1-3.5,6.8-6.7,6.7
	c-4.3-0.1-6.8-3.7-6.5-7.5C50.7,24.3,53.8,21.4,57.4,21.7L57.4,21.7L57.4,21.7z"/>
<path class="st0" d="M49.6,37.5c3.4,3.3,12.1,3.3,14.8,0c-0.5-0.5-1-1-1.4-1.5c-4,2.7-8,2.7-11.9,0C50.6,36.4,50.1,36.9,49.6,37.5
	 M57.8,40.4c-2.5,0.3-4.7-0.5-6.9-1.5c-0.6-0.3-1.1-0.7-1.6-1.1c-0.1-0.1-0.1-0.4-0.1-0.5c0.4-0.5,0.9-1,1.4-1.5
	c0.3-0.4,0.6-0.4,1-0.1c2.2,1.7,4.8,2.2,7.5,1.5c1.2-0.3,2.4-1,3.5-1.6c0.3-0.2,0.5-0.2,0.8,0.1c0.4,0.5,0.9,1,1.4,1.4
	c0.3,0.3,0.3,0.5-0.1,0.7c-1.3,0.9-2.6,1.7-4.2,2.1c-0.9,0.2-1.8,0.4-2.7,0.6C57.8,40.5,57.8,40.4,57.8,40.4L57.8,40.4L57.8,40.4z"
	/>
<path class="st1" d="M49.6,37.5c3.4,3.3,12.1,3.3,14.8,0c-0.5-0.5-1-1-1.4-1.5c-4,2.7-8,2.7-11.9,0C50.6,36.4,50.1,36.9,49.6,37.5
	L49.6,37.5z M57.8,40.4c-2.5,0.3-4.7-0.5-6.9-1.5c-0.6-0.3-1.1-0.7-1.6-1.1c-0.1-0.1-0.1-0.4-0.1-0.5c0.4-0.5,0.9-1,1.4-1.5
	c0.3-0.4,0.6-0.4,1-0.1c2.2,1.7,4.8,2.2,7.5,1.5c1.2-0.3,2.4-1,3.5-1.6c0.3-0.2,0.5-0.2,0.8,0.1c0.4,0.5,0.9,1,1.4,1.4
	c0.3,0.3,0.3,0.5-0.1,0.7c-1.3,0.9-2.6,1.7-4.2,2.1c-0.9,0.2-1.8,0.4-2.7,0.6C57.8,40.5,57.8,40.4,57.8,40.4L57.8,40.4L57.8,40.4z"
	/>
<path class="st3" d="M48.4,42.9c2.5,0.1,4.8,0,7.2,0.2c3.1,0.2,5.9-0.3,8.5-1.8c0.9-0.5,1.7-1,2.5-1.5c0.5,0.5,1,0.9,1.6,1.4
	C61.5,47.2,52.2,45.9,48.4,42.9L48.4,42.9L48.4,42.9z"/>
<path class="st1" d="M48.4,42.9c2.5,0.1,4.8,0,7.2,0.2c3.1,0.2,5.9-0.3,8.5-1.8c0.9-0.5,1.7-1,2.5-1.5c0.5,0.5,1,0.9,1.6,1.4
	C61.5,47.2,52.2,45.9,48.4,42.9L48.4,42.9L48.4,42.9z"/>
<path class="st3" d="M51.7,42.2c-1.3,0-2.7,0-4.1,0c-0.3,0-0.5-0.2-0.8-0.4c-0.2-0.2-0.5-0.4-0.8-0.7c0.5-0.5,0.9-0.9,1.3-1.3
	C48.8,40.7,50.3,41.5,51.7,42.2"/>
<path class="st1" d="M51.7,42.2c-1.3,0-2.7,0-4.1,0c-0.3,0-0.5-0.2-0.8-0.4c-0.2-0.2-0.5-0.4-0.8-0.7c0.5-0.5,0.9-0.9,1.3-1.3
	C48.8,40.7,50.3,41.5,51.7,42.2L51.7,42.2z"/>
<path class="st3" d="M29.1,32.3c2.2,0,4-1.8,4-4s-1.8-3.9-4.3-3.9c-1.8,0-3.6,1.9-3.6,3.8C25.2,30.6,26.9,32.3,29.1,32.3 M29.2,22.1
	c3.5,0.3,6.1,2.8,6.1,6.2c0,3.6-2.8,6.6-6.5,6.5c-3.6-0.2-5.9-3.2-5.9-6.5C22.9,24.6,26.1,22.2,29.2,22.1"/>
<path class="st1" d="M29.1,32.3c2.2,0,4-1.8,4-4s-1.8-3.9-4.3-3.9c-1.8,0-3.6,1.9-3.6,3.8C25.2,30.6,26.9,32.3,29.1,32.3L29.1,32.3z
	 M29.2,22.1c3.5,0.3,6.1,2.8,6.1,6.2c0,3.6-2.8,6.6-6.5,6.5c-3.6-0.2-5.9-3.2-5.9-6.5C22.9,24.6,26.1,22.2,29.2,22.1L29.2,22.1z"/>
<path class="st3" d="M63.2,28.4c0.2,3.2-2.8,6.4-6.1,6.4c-3.7,0-6.2-2.9-6.3-6.5c-0.1-3.1,2.8-6.2,5.8-6.2
	C60.4,22,63.5,25.3,63.2,28.4C63.2,28.4,63.2,28.4,63.2,28.4z"/>
<path class="st1" d="M63.2,28.4c0.2,3.2-2.8,6.4-6.1,6.4c-3.7,0-6.2-2.9-6.3-6.5c-0.1-3.1,2.8-6.2,5.8-6.2
	C60.4,22,63.5,25.3,63.2,28.4C63.2,28.4,63.2,28.4,63.2,28.4z"/>
<path class="st3" d="M49.8,37.5c0.5-0.5,1-1,1.4-1.5c3.9,2.6,7.8,2.6,11.8,0c0.5,0.5,0.9,1,1.4,1.5C61.6,40.7,53.1,40.7,49.8,37.5"
	/>
<path class="st1" d="M49.8,37.5c0.5-0.5,1-1,1.4-1.5c3.9,2.6,7.8,2.6,11.8,0c0.5,0.5,0.9,1,1.4,1.5C61.6,40.7,53.1,40.7,49.8,37.5z"
	/>
<path class="st0" d="M29.2,25c-1.7-0.3-3.4,1.5-3.4,3.3s1.4,3.3,3.3,3.4c1.8,0.1,3.5-1.5,3.6-3.4C32.7,26.7,31.1,25.1,29.2,25
	L29.2,25L29.2,25z M29.1,32.2c-2.1,0-3.8-1.7-3.8-3.9c0-1.9,1.7-3.7,3.5-3.7c2.4,0,4.2,1.6,4.2,3.8S31.3,32.3,29.1,32.2"/>
<path class="st1" d="M29.2,25c-1.7-0.3-3.4,1.5-3.4,3.3s1.4,3.3,3.3,3.4c1.8,0.1,3.5-1.5,3.6-3.4C32.7,26.7,31.1,25.1,29.2,25
	L29.2,25L29.2,25z M29.1,32.2c-2.1,0-3.8-1.7-3.8-3.9c0-1.9,1.7-3.7,3.5-3.7c2.4,0,4.2,1.6,4.2,3.8S31.3,32.3,29.1,32.2L29.1,32.2z"
	/>
<path class="st3" d="M29.2,25.1c2,0.1,3.5,1.6,3.4,3.4c-0.1,1.9-1.7,3.4-3.5,3.3c-1.9-0.1-3.2-1.5-3.2-3.4S27.5,24.8,29.2,25.1
	L29.2,25.1L29.2,25.1z"/>
<path class="st1" d="M29.2,25.1c2,0.1,3.5,1.6,3.4,3.4c-0.1,1.9-1.7,3.4-3.5,3.3c-1.9-0.1-3.2-1.5-3.2-3.4S27.5,24.8,29.2,25.1
	L29.2,25.1L29.2,25.1z"/>
</svg>
