<?xml version="1.0" encoding="UTF-8"?>
<svg id="Layer_1" data-name="Layer 1" xmlns="http://www.w3.org/2000/svg" viewBox="0 0 134.23 474.82">
  <defs>
    <style>
      .cls-1, .cls-2 {
        stroke-width: 0px;
      }

      .cls-2 {
        fill: #fff;
      }
    </style>
  </defs>
  <g id="HBLTni.tif">
    <g>
      <path class="cls-1" d="M0,0h134.23v474.82H0V0ZM1.63,1.65v471.63h131.04V1.65H1.63Z"/>
      <path class="cls-2" d="M1.63,1.65h131.04v471.63H1.63V1.65ZM81.95,301.2c-3.33-.67-6.22-1.37-9.15-1.8-4.64-.69-9.3-1.51-13.98-1.69-3.62-.15-6.27,2.31-7.13,5.52-1.28,4.74.48,9.49,4.55,12.26.72.49,1.47.94,2.34,1.49-9.11,1.77-9.87,13.42-.58,18.75-2.25-.42-4-.74-5.83-1.09v5.31c11.46,2.3,22.81,4.57,34.19,6.85q.68-5.19-3.85-6.12c-5.19-1.05-10.44-1.83-15.55-3.18-4.94-1.3-9.38-3.63-10.65-9.27-.75-3.31,1.13-5.58,4.5-5.61,1.65-.01,3.32.07,4.94.38,6.87,1.3,13.72,2.7,20.7,4.09v-5.34c-5.6-1.11-11.02-2.17-16.45-3.25-4.52-.89-8.92-2.03-12.04-5.83-1.9-2.32-2.42-5.54-1.06-7.67,1.53-2.41,3.98-2.51,6.43-2.06,5.93,1.08,11.84,2.24,17.75,3.43,3.58.72,5.39-.62,5.53-4.28.06-1.56.01-3.13.01-4.85-1.6-.28-3.01-.53-4.66-.82v4.77ZM37.2,115.62c0,1.11.07,1.7-.01,2.26-.34,2.28.37,3.32,2.89,3.71,5.65.89,11.23,2.22,17.44,3.49-3.54,1.41-5.39,3.7-5.9,6.82-.76,4.69.26,9.01,3.89,12.3,6.81,6.17,14.9,8.09,23.78,6.31,4.19-.84,7.22-3.53,8-7.92.81-4.55-.7-8.35-4.57-11.08-.64-.45-1.25-.94-2.07-1.56,4.93-.27,5.87-1.11,5.97-5.05q.12-4.46-4.57-4.93c-.07,1.47-.13,2.94-.21,4.64-14.88-2.99-29.58-5.95-44.65-8.98ZM86.37,290.3q.6-4.9-4.44-6.4c5.12-3.61,6.91-7.84,4.84-13.39-.97-2.59-2.8-5.22-4.96-6.94-6.26-4.99-13.63-6.66-21.5-5.29-4.26.74-7.66,3.12-8.63,7.6-.98,4.55.26,8.57,4.21,11.44.71.52,1.43,1.03,2.15,1.55-.05.12-.1.24-.15.36-6.82-1.37-13.63-2.74-20.56-4.13v5.32c16.38,3.3,32.63,6.57,49.04,9.87ZM80.33,85.08c-1.09,1.16-2.04,2.17-2.73,2.91,1.61,2.6,3.47,4.81,4.43,7.36,1.22,3.26,1.27,6.79-1.47,9.54-2.37,2.39-5.32,2.67-8.61,1.82,0-.98.06-1.8,0-2.62-.41-5.12-.62-10.29-2.87-15.06-2.01-4.27-5.14-6.1-9.72-5.71-3.61.31-6.28,2.72-7.38,7.02-1.4,5.42-.45,10.46,3.38,14.63,6.32,6.88,14.34,8.59,23.18,6.78,5.04-1.03,8.45-5.25,8.87-10.45.52-6.5-1.74-11.85-7.07-16.2ZM71.39,78.34c9.55.06,14.58-3.33,15.82-9.8.93-4.85-.35-9.24-3.67-12.94-5.15-5.74-11.83-7.74-19.27-7.47-5.29.19-9.91,2.05-11.92,7.4-2.14,5.69-.98,11.01,3.11,15.51,4.7,5.17,10.82,7.11,15.94,7.3ZM74.04,251.31c4.68.07,9.83-1.34,12.3-7.09,2.54-5.92,1.21-11.53-3.22-16.08-6.47-6.64-14.56-8.32-23.35-6.24-4.46,1.05-7.32,4.29-8.12,8.86-.85,4.9.26,9.42,3.73,13.18,4.74,5.13,10.74,7.25,18.67,7.38ZM86.5,419.71c.06-1.02.05-1.6.14-2.16.33-2.26-.29-3.48-2.88-3.74-3.11-.31-6.18-1.12-9.25-1.82-4.73-1.08-9.71-1.37-13.84-4.44-2.29-1.71-4-3.75-4.41-6.65-.56-4,1.33-6.29,5.35-6.27,1.88,0,3.78.39,5.65.73,4.87.89,9.71,2.01,14.61,2.68,1.29.18,3.67-.62,3.96-1.5.72-2.2.84-4.74.49-7.03-.1-.63-2.69-.88-4.24-1.34-.08,1.55-.16,3.07-.24,4.66-6.41-1.22-12.57-2.43-18.74-3.57-5.4-1-10.12,1.41-11.34,5.71-1.3,4.58.25,9.11,4.11,11.93.61.44,1.23.87,1.85,1.3-.07.12-.13.23-.2.35-1.74-.34-3.49-.69-5.26-1.04v5.3c11.45,2.31,22.71,4.57,34.25,6.89ZM86.63,194.69c0-1.14-.11-1.9.02-2.63.47-2.7-.68-4.19-3.1-5.4-5.18-2.61-10.18-5.55-15.28-8.33-5.28-2.88-10.59-5.72-15.96-8.62-.73,5.29-.74,5.31,3.48,7.53,7.92,4.16,15.86,8.29,23.8,12.43.5.26.98.54,1.84,1.02-10.04,1.37-19.66,2.69-29.23,4v5.27c11.52-1.77,22.86-3.51,34.44-5.28ZM37.2,366.8c0,1.5.09,2.57-.02,3.62-.16,1.44.64,1.89,1.82,2.13,14.02,2.81,28.04,5.64,42.06,8.42,1.88.37,4.13.22,4.75-1.72.72-2.28.78-4.89.49-7.27-.07-.56-2.7-.8-4.36-1.24v5.04c-14.96-3-29.67-5.96-44.73-8.98ZM52.12,162.82c9.93,1.98,19.78,4.07,29.67,5.87,3.45.63,4.78-1.43,4.83-6.54.03-2.99-.45-3.33-4.69-3.16v4.47c-10.06-2.01-19.86-3.96-29.82-5.95v5.3ZM81.93,358.18c-10.07-2.02-19.89-4-29.81-5.99v5.34c9.99,2,19.97,4.06,29.99,5.96,2.27.43,4.19-1.32,4.39-3.72.15-1.79.03-3.61.03-5.55-1.54-.26-2.94-.5-4.6-.79v4.75ZM52.05,430.34c9.32,1.9,18.38,3.75,27.45,5.59,5.44,1.1,7.12-.3,7.13-5.92,0-.9,0-1.8,0-2.87-1.6-.3-3.02-.56-4.72-.88v4.78c-10.07-2.02-19.86-3.98-29.75-5.97-.04.64-.1,1.13-.11,1.62-.01,1.16,0,2.32,0,3.64ZM87.43,213.64c.1-2.96-1.8-4.73-5.29-4.91-2.18-.11-3.29.97-3.39,3.31-.13,3.02,1.65,4.63,5.3,4.79,2.36.1,3.31-.79,3.38-3.19ZM44.21,158.59c.04-2.72-1.6-4.3-4.3-4.25-1.84.04-2.62,1.23-2.68,2.94-.08,2.33,1.56,3.88,4.14,3.98,1.99.07,2.88-.96,2.85-2.66ZM44.23,353.15c-.05-2.69-1.65-4.07-4.27-4.06-2.09.01-2.72,1.32-2.72,3.09,0,2.3,2.08,4.07,4.58,3.82,1.79-.18,2.53-1.38,2.41-2.85ZM40.28,422.02c-1.99-.06-2.96.8-3.05,2.71-.12,2.47,1.46,3.94,4.28,4.02,1.87.05,2.68-.92,2.72-2.73.05-2.55-1.27-3.91-3.95-3.99Z"/>
      <path class="cls-1" d="M81.95,301.2v-4.77c1.65.29,3.06.54,4.66.82,0,1.72.05,3.29-.01,4.85-.15,3.67-1.95,5-5.53,4.28-5.91-1.19-11.82-2.35-17.75-3.43-2.45-.45-4.9-.35-6.43,2.06-1.36,2.13-.84,5.35,1.06,7.67,3.11,3.8,7.52,4.94,12.04,5.83,5.42,1.07,10.85,2.14,16.45,3.25v5.34c-6.98-1.39-13.83-2.79-20.7-4.09-1.61-.31-3.29-.39-4.94-.38-3.37.02-5.25,2.3-4.5,5.61,1.27,5.64,5.71,7.97,10.65,9.27,5.11,1.35,10.37,2.13,15.55,3.18q4.53.92,3.85,6.12c-11.38-2.28-22.73-4.56-34.19-6.85v-5.31c1.84.34,3.58.67,5.83,1.09-9.29-5.34-8.53-16.99.58-18.75-.87-.55-1.62-1-2.34-1.49-4.07-2.77-5.82-7.52-4.55-12.26.86-3.2,3.5-5.66,7.13-5.52,4.68.19,9.33,1,13.98,1.69,2.93.44,5.83,1.14,9.15,1.8Z"/>
      <path class="cls-1" d="M37.2,115.62c15.07,3.03,29.78,5.99,44.65,8.98.08-1.7.14-3.17.21-4.64q4.68.47,4.57,4.93c-.1,3.95-1.04,4.79-5.97,5.05.82.62,1.43,1.11,2.07,1.56,3.86,2.73,5.37,6.53,4.57,11.08-.78,4.4-3.81,7.08-8,7.92-8.88,1.78-16.97-.14-23.78-6.31-3.63-3.28-4.65-7.6-3.89-12.3.51-3.12,2.36-5.41,5.9-6.82-6.21-1.27-11.79-2.6-17.44-3.49-2.52-.39-3.23-1.43-2.89-3.71.08-.56.01-1.15.01-2.26ZM73.82,145.86c3.89-.26,6.68-.73,8.06-3.53,1.34-2.72,1.04-5.59-.83-7.98-1.3-1.67-2.79-3.66-4.63-4.35-4.28-1.6-8.77-2.84-13.28-3.6-3.86-.65-5.99,1.4-6.73,5.29-.98,5.19,1.27,9.66,6.43,11.49,3.86,1.37,7.98,1.98,10.99,2.69Z"/>
      <path class="cls-1" d="M86.37,290.3c-16.4-3.3-32.66-6.57-49.04-9.87v-5.32c6.93,1.39,13.74,2.76,20.56,4.13.05-.12.1-.24.15-.36-.72-.52-1.44-1.03-2.15-1.55-3.95-2.87-5.19-6.89-4.21-11.44.97-4.48,4.37-6.86,8.63-7.6,7.87-1.37,15.24.3,21.5,5.29,2.15,1.72,3.99,4.35,4.96,6.94,2.08,5.54.28,9.77-4.84,13.39q5.04,1.5,4.44,6.4ZM82.57,275.04c.23-3.89-1.75-7.3-5.59-8.68-4.37-1.58-9.08-2.76-13.7-2.96-6.28-.27-9.11,5.57-5.77,10.95,1.91,3.07,4.59,5.28,8.07,6.26,3.01.85,6.1,1.57,9.2,1.98,5.12.69,7.71-1.8,7.78-7.55Z"/>
      <path class="cls-1" d="M80.33,85.08c5.32,4.35,7.59,9.71,7.07,16.2-.42,5.2-3.82,9.42-8.87,10.45-8.84,1.81-16.86.11-23.18-6.78-3.82-4.16-4.77-9.21-3.38-14.63,1.11-4.3,3.77-6.71,7.38-7.02,4.58-.39,7.71,1.44,9.72,5.71,2.25,4.77,2.46,9.94,2.87,15.06.07.82,0,1.65,0,2.62,3.29.85,6.23.57,8.61-1.82,2.74-2.76,2.69-6.28,1.47-9.54-.96-2.55-2.82-4.76-4.43-7.36.69-.73,1.64-1.74,2.73-2.91ZM68.25,106c-.86-4.77-1.42-9.44-2.61-13.94-.76-2.87-3.2-3.79-6.19-3.26-2.07.37-3.3,2.2-3.43,5.12-.29,6.63,4.28,11.43,12.23,12.08Z"/>
      <path class="cls-1" d="M71.39,78.34c-5.12-.18-11.24-2.12-15.94-7.3-4.08-4.5-5.24-9.82-3.11-15.51,2.01-5.36,6.63-7.21,11.92-7.4,7.44-.27,14.12,1.73,19.27,7.47,3.32,3.7,4.6,8.08,3.67,12.94-1.24,6.47-6.27,9.86-15.82,9.8ZM65.89,53.37c-7.57-.03-10.91,4.25-9.49,9.93.85,3.39,2.9,6.02,6.11,7.01,4.21,1.3,8.61,2.27,12.99,2.68,3.87.36,6.62-2.6,7.08-6.53.53-4.57-1.85-8.79-6.61-10.51-3.77-1.36-7.8-2.02-10.07-2.58Z"/>
      <path class="cls-1" d="M74.04,251.31c-7.92-.13-13.92-2.25-18.67-7.38-3.47-3.75-4.58-8.27-3.73-13.18.8-4.57,3.66-7.8,8.12-8.86,8.79-2.07,16.88-.4,23.35,6.24,4.43,4.54,5.76,10.15,3.22,16.08-2.47,5.76-7.62,7.16-12.3,7.09ZM72.96,246.08c6.85.13,10.18-3.43,9.66-8.67-.5-4.95-3.67-7.71-8.06-9.08-3.13-.97-6.41-1.61-9.67-1.99-5.99-.71-9.95,4.07-8.48,9.95.9,3.6,3.23,6.11,6.56,7.26,3.72,1.29,7.65,1.96,9.99,2.54Z"/>
      <path class="cls-1" d="M86.5,419.71c-11.54-2.32-22.8-4.59-34.25-6.89v-5.3c1.77.35,3.52.69,5.26,1.04.07-.12.13-.23.2-.35-.62-.43-1.24-.85-1.85-1.3-3.86-2.82-5.42-7.35-4.11-11.93,1.23-4.3,5.94-6.71,11.34-5.71,6.17,1.14,12.34,2.35,18.74,3.57.08-1.6.16-3.12.24-4.66,1.55.46,4.14.71,4.24,1.34.35,2.3.23,4.84-.49,7.03-.29.87-2.67,1.67-3.96,1.5-4.9-.68-9.73-1.79-14.61-2.68-1.87-.34-3.76-.72-5.65-.73-4.02-.02-5.91,2.27-5.35,6.27.41,2.9,2.11,4.95,4.41,6.65,4.12,3.07,9.1,3.36,13.84,4.44,3.06.7,6.14,1.5,9.25,1.82,2.6.26,3.21,1.49,2.88,3.74-.08.56-.08,1.14-.14,2.16Z"/>
      <path class="cls-1" d="M86.63,194.69c-11.57,1.77-22.91,3.51-34.44,5.28v-5.27c9.57-1.31,19.19-2.63,29.23-4-.86-.48-1.34-.76-1.84-1.02-7.93-4.14-15.87-8.27-23.8-12.43-4.23-2.22-4.22-2.24-3.48-7.53,5.37,2.9,10.68,5.74,15.96,8.62,5.09,2.77,10.1,5.72,15.28,8.33,2.42,1.22,3.57,2.71,3.1,5.4-.13.72-.02,1.49-.02,2.63Z"/>
      <path class="cls-1" d="M37.2,366.8c15.06,3.02,29.76,5.98,44.73,8.98v-5.04c1.66.44,4.3.68,4.36,1.24.29,2.39.23,5-.49,7.27-.61,1.94-2.86,2.09-4.75,1.72-14.02-2.78-28.04-5.61-42.06-8.42-1.18-.24-1.98-.69-1.82-2.13.11-1.05.02-2.12.02-3.62Z"/>
      <path class="cls-1" d="M52.12,162.82v-5.3c9.95,1.98,19.75,3.94,29.82,5.95v-4.47c4.24-.17,4.72.17,4.69,3.16-.05,5.11-1.38,7.16-4.83,6.54-9.9-1.79-19.74-3.88-29.67-5.87Z"/>
      <path class="cls-1" d="M81.93,358.18v-4.75c1.66.28,3.06.52,4.6.79,0,1.94.12,3.76-.03,5.55-.2,2.4-2.12,4.15-4.39,3.72-10.01-1.9-19.99-3.96-29.99-5.96v-5.34c9.92,1.99,19.74,3.97,29.81,5.99Z"/>
      <path class="cls-1" d="M52.05,430.34c0-1.33,0-2.49,0-3.64,0-.49.06-.98.11-1.62,9.89,1.98,19.68,3.95,29.75,5.97v-4.78c1.71.32,3.12.58,4.72.88,0,1.07,0,1.97,0,2.87,0,5.62-1.69,7.03-7.13,5.92-9.07-1.84-18.14-3.69-27.45-5.59Z"/>
      <path class="cls-1" d="M87.43,213.64c-.08,2.41-1.02,3.29-3.38,3.19-3.65-.16-5.43-1.77-5.3-4.79.1-2.33,1.21-3.42,3.39-3.31,3.49.18,5.39,1.94,5.29,4.91Z"/>
      <path class="cls-1" d="M44.21,158.59c.04,1.7-.86,2.74-2.85,2.66-2.58-.1-4.22-1.65-4.14-3.98.06-1.71.84-2.9,2.68-2.94,2.71-.05,4.35,1.53,4.3,4.25Z"/>
      <path class="cls-1" d="M44.23,353.15c.13,1.47-.61,2.68-2.41,2.85-2.5.25-4.58-1.52-4.58-3.82,0-1.76.63-3.08,2.72-3.09,2.62-.02,4.22,1.37,4.27,4.06Z"/>
      <path class="cls-1" d="M40.28,422.02c2.68.08,4,1.44,3.95,3.99-.04,1.81-.84,2.78-2.72,2.73-2.83-.07-4.4-1.55-4.28-4.02.09-1.9,1.06-2.77,3.05-2.71Z"/>
      <path class="cls-2" d="M73.82,145.86c-3.01-.71-7.13-1.33-10.99-2.69-5.16-1.83-7.41-6.3-6.43-11.49.74-3.89,2.87-5.93,6.73-5.29,4.51.76,9,1.99,13.28,3.6,1.84.69,3.33,2.68,4.63,4.35,1.87,2.39,2.18,5.26.83,7.98-1.38,2.8-4.16,3.28-8.06,3.53Z"/>
      <path class="cls-2" d="M82.57,275.04c-.08,5.76-2.66,8.24-7.78,7.55-3.1-.41-6.18-1.13-9.2-1.98-3.48-.98-6.16-3.2-8.07-6.26-3.35-5.38-.51-11.22,5.77-10.95,4.61.2,9.33,1.38,13.7,2.96,3.84,1.38,5.81,4.79,5.59,8.68Z"/>
      <path class="cls-2" d="M68.25,106c-7.94-.65-12.52-5.44-12.23-12.08.13-2.92,1.36-4.75,3.43-5.12,2.99-.53,5.42.39,6.19,3.26,1.2,4.5,1.75,9.16,2.61,13.94Z"/>
      <path class="cls-2" d="M65.89,53.37c2.27.56,6.3,1.22,10.07,2.58,4.76,1.72,7.14,5.93,6.61,10.51-.45,3.93-3.2,6.89-7.08,6.53-4.38-.41-8.78-1.38-12.99-2.68-3.21-.99-5.26-3.62-6.11-7.01-1.42-5.67,1.92-9.96,9.49-9.93Z"/>
      <path class="cls-2" d="M72.96,246.08c-2.34-.57-6.27-1.25-9.99-2.54-3.34-1.15-5.66-3.65-6.56-7.26-1.47-5.87,2.49-10.65,8.48-9.95,3.26.39,6.54,1.02,9.67,1.99,4.39,1.36,7.56,4.13,8.06,9.08.53,5.24-2.81,8.8-9.66,8.67Z"/>
    </g>
  </g>
</svg>