<?xml version="1.0" encoding="UTF-8"?>
<svg id="Layer_1" data-name="Layer 1" xmlns="http://www.w3.org/2000/svg" viewBox="0 0 541.87 548.38">
  <defs>
    <style>
      .cls-1, .cls-2 {
        stroke: #231f20;
        stroke-miterlimit: 10;
        stroke-width: 3px;
      }

      .cls-2 {
        fill: #fff;
      }
    </style>
  </defs>
  <path class="cls-2" d="M267.39,1.68c-13.29-.87-29.22,1.5-45.2,4.25-21.18,3.64-41.59,9.69-61.02,18.69-25.24,11.69-49.28,25.34-68.87,45.68-10.1,10.49-21.22,20.09-30.57,31.2-17.69,21.02-30.69,44.98-40.79,70.53C5.19,211.91-.69,253.22,2.21,295.93c1.77,26.04,7.89,51.06,16.85,75.47,10.3,28.05,25.49,53.26,44.14,76.48,26.67,33.21,60.43,57.33,98.53,75.42,31.06,14.75,64.23,22.01,98.54,23.38,16.89.68,33.72-.52,50.52-3.15,29.75-4.65,57.91-13.53,84.45-27.92,33.93-18.39,63.17-42.08,86.81-72.77,18.71-24.29,33.51-50.52,43.23-79.69,7.13-21.39,11.93-43.23,13.93-65.63,1.52-17.03,1.81-34.14-.72-51.13-2.09-14.04-4.03-28.13-7.06-41.98-5.08-23.2-15.21-44.57-26.1-65.5-15-28.83-36.92-52.25-60.62-73.88-23.13-21.11-50.42-35.74-79.66-46.68-30.51-11.42-62.03-17.34-97.66-16.69Z"/>
  <path class="cls-1" d="M267.39,1.68c35.63-.65,67.15,5.27,97.66,16.69,29.24,10.94,56.53,25.57,79.66,46.68,23.7,21.63,45.63,45.05,60.62,73.88,10.89,20.93,21.02,42.3,26.1,65.5,3.03,13.84,4.97,27.94,7.06,41.98,2.52,16.99,2.24,34.1.72,51.13-2,22.4-6.8,44.24-13.93,65.63-9.72,29.17-24.52,55.4-43.23,79.69-23.64,30.68-52.88,54.38-86.81,72.77-26.54,14.38-54.7,23.26-84.45,27.92-16.8,2.63-33.63,3.82-50.52,3.15-34.31-1.37-67.48-8.63-98.54-23.38-38.09-18.1-71.85-42.21-98.53-75.42-18.65-23.22-33.85-48.43-44.14-76.48-8.96-24.41-15.08-49.43-16.85-75.47-2.9-42.7,2.98-84.02,18.73-123.89,10.1-25.55,23.09-49.51,40.79-70.53,9.35-11.11,20.47-20.71,30.57-31.2,19.59-20.34,43.63-33.99,68.87-45.68,19.43-9,39.84-15.06,61.02-18.69,15.98-2.74,31.91-5.12,45.2-4.25ZM270.76,3.96c-12.38,1.04-23.97,1.71-35.48,3.05-25.86,2.99-50.66,10.01-74.28,20.96-25.06,11.62-48.45,25.79-68.04,45.64-6.51,6.6-13.62,12.64-19.88,19.46-14.29,15.55-26.33,32.69-36.13,51.49-12.59,24.14-21.9,49.33-27.21,76.04-4.24,21.32-5.82,42.88-5.27,64.51.79,31.01,7.78,60.86,19.24,89.62,8.52,21.38,18.74,41.88,33.57,59.73,9.29,11.18,18.14,22.82,28.29,33.18,23.87,24.38,52.79,41.61,83.63,55.51,11.99,5.4,24.7,9.51,37.45,12.81,30.8,7.97,62.26,9.81,93.77,6.07,30.89-3.67,60.81-11.34,88.27-26.74,3.2-1.79,6.63-3.19,9.84-4.96,31.18-17.22,57.91-39.64,79.91-67.76,18.09-23.12,32.74-48.04,42.38-75.88,7.69-22.19,13.02-44.79,15.11-68.22,2.91-32.75-.18-64.97-8.19-96.72-5.53-21.92-15.03-42.34-25.58-62.21-16.06-30.24-39.28-54.66-64.91-76.72-15.04-12.94-32.01-23.22-50.18-31.68-23.59-11-47.85-19.53-73.61-23.16-14.38-2.03-28.94-2.75-42.72-3.99Z"/>
  <path class="cls-2" d="M270.76,3.96c13.78,1.25,28.34,1.97,42.72,3.99,25.76,3.63,50.01,12.17,73.61,23.16,18.17,8.47,35.14,18.74,50.18,31.68,25.63,22.06,48.86,46.48,64.91,76.72,10.55,19.87,20.05,40.29,25.58,62.21,8.01,31.76,11.1,63.97,8.19,96.72-2.08,23.43-7.42,46.04-15.11,68.22-9.65,27.85-24.3,52.76-42.38,75.88-22,28.12-48.73,50.54-79.91,67.76-3.21,1.77-6.64,3.17-9.84,4.96-27.46,15.4-57.38,23.08-88.27,26.74-31.52,3.74-62.97,1.91-93.77-6.07-12.75-3.3-25.47-7.41-37.45-12.81-30.84-13.9-59.76-31.14-83.63-55.51-10.15-10.36-19-22-28.29-33.18-14.83-17.85-25.05-38.35-33.57-59.73-11.46-28.76-18.45-58.61-19.24-89.62-.55-21.64,1.03-43.19,5.27-64.51,5.32-26.72,14.63-51.9,27.21-76.04,9.81-18.8,21.85-35.94,36.13-51.49,6.26-6.82,13.37-12.86,19.88-19.46,19.59-19.85,42.98-34.03,68.04-45.64,23.61-10.94,48.42-17.96,74.28-20.96,11.51-1.33,23.09-2,35.48-3.05ZM521.46,274.37c-.42-.04-.83-.07-1.25-.11.19-23.37-2.45-46.29-9.02-68.83-7.09-24.33-17.13-47.28-30.55-68.67-17.75-28.29-41.31-51.36-67.77-71.29-20.11-15.15-43.05-25.27-67.05-32.81-21.56-6.77-43.56-10.3-66.27-11.15-19.9-.74-39.52.53-58.75,4.68-35.78,7.73-69.5,20.63-98.07,44.56-7.56,6.33-15.61,12.13-22.83,18.82-17.17,15.91-31.26,34.27-43.21,54.45-14.31,24.15-24.47,49.76-30.17,77.22-5.31,25.58-6.92,51.39-4.51,77.36,2.37,25.49,8.97,50.07,18.84,73.64,15.79,37.69,39.48,69.82,70.49,96.36,32.06,27.44,69.74,43.69,110.36,53.46,10.09,2.43,20.6,3.87,30.96,4.2,24.48.78,48.78.31,72.94-6,51.62-13.47,96.41-37.68,131.51-78.55,19.64-22.86,35.9-47.78,45.93-76.35,4.7-13.39,9.45-26.93,12.15-40.79,3.22-16.52,4.26-33.45,6.25-50.21Z"/>
  <path class="cls-1" d="M521.46,274.37c-1.99,16.76-3.03,33.7-6.25,50.21-2.7,13.87-7.46,27.41-12.15,40.79-10.03,28.57-26.29,53.48-45.93,76.35-35.1,40.86-79.89,65.07-131.51,78.55-24.16,6.31-48.45,6.78-72.94,6-10.37-.33-20.87-1.78-30.96-4.2-40.62-9.77-78.31-26.02-110.36-53.46-31.01-26.54-54.7-58.68-70.49-96.36-9.87-23.57-16.48-48.14-18.84-73.64-2.41-25.96-.8-51.78,4.51-77.36,5.7-27.47,15.86-53.08,30.17-77.22,11.95-20.17,26.05-38.54,43.21-54.45,7.22-6.69,15.27-12.49,22.83-18.82,28.58-23.93,62.29-36.83,98.07-44.56,19.23-4.15,38.85-5.43,58.75-4.68,22.71.85,44.71,4.37,66.27,11.15,24,7.54,46.94,17.67,67.05,32.81,26.46,19.93,50.02,43,67.77,71.29,13.42,21.39,23.47,44.34,30.55,68.67,6.56,22.54,9.21,45.46,9.02,68.83.42.04.83.07,1.25.11ZM270.26,24.24c-7.34.43-14.68.82-22.01,1.31-25.17,1.65-49.23,8.06-72.38,17.74-16.37,6.84-32.45,14.34-46.09,26.2-9.43,8.2-19.75,15.41-29,23.79-16.48,14.92-29.34,32.75-40.93,51.72-21.41,35.05-32.49,73.16-35.22,113.82-2.65,39.44,4.31,77.43,19.77,113.71,15.96,37.47,39.81,69.37,71.12,95.37,36.43,30.25,78.94,47.2,125.44,53.78,15.31,2.17,31.12,1.88,46.62,1.15,11.88-.56,23.8-2.89,35.43-5.6,50.42-11.73,94.06-35.31,128.81-74.43,20.05-22.56,36.27-47.33,47.24-75.55,9.53-24.54,16.09-49.68,17.55-76.06,1.56-28.08-.25-55.73-8.02-83-9.64-33.82-24.39-64.92-46.95-91.97-20.47-24.54-43.68-46.05-72.02-61.45-37.21-20.22-76.8-31.01-119.36-30.55Z"/>
  <path class="cls-2" d="M270.26,24.24c42.56-.46,82.14,10.33,119.36,30.55,28.34,15.4,51.55,36.9,72.02,61.45,22.56,27.05,37.31,58.14,46.95,91.97,7.77,27.27,9.58,54.92,8.02,83-1.46,26.38-8.02,51.53-17.55,76.06-10.97,28.22-27.19,52.99-47.24,75.55-34.76,39.11-78.4,62.69-128.81,74.43-11.63,2.71-23.55,5.04-35.43,5.6-15.51.73-31.32,1.01-46.62-1.15-46.51-6.58-89.02-23.53-125.44-53.78-31.31-26-55.16-57.9-71.12-95.37-15.46-36.28-22.42-74.27-19.77-113.71,2.73-40.66,13.82-78.77,35.22-113.82,11.59-18.98,24.46-36.8,40.93-51.72,9.26-8.38,19.57-15.59,29-23.79,13.64-11.87,29.71-19.37,46.09-26.2,23.15-9.67,47.21-16.08,72.38-17.74,7.33-.48,14.67-.87,22.01-1.31ZM67.04,322.98c22.11,78.59,69.69,133.62,148.82,153.98,101.04,25.99,179.13-11.56,236.82-96.42,7.79,3.96,15.95,8.01,24,12.25,2.66,1.4,4.42,1.06,5.77-1.6,1.93-3.81,4.09-7.52,5.7-11.46.44-1.08-.26-3.55-1.21-4.13-5.55-3.45-11.26-6.65-17.04-9.71-12.07-6.41-24.2-12.72-36.34-19.01-11.99-6.21-24.05-12.3-36.04-18.51-2.65-1.37-4.38-1.77-5.55,1.91-1.01,3.18-2.92,6.09-4.58,9.04-2.73,4.85-2.78,4.83,2.1,7.48.64.35,1.33.61,1.98.95,7.09,3.68,14.18,7.37,21.27,11.06-31.43,57.07-102.2,95.99-181.29,77.16-65.5-15.59-105.57-66.41-118.75-114.99,6.02-.57,11.98-1.13,18.62-1.76-.99-1.96-1.3-2.75-1.76-3.46-4.48-6.91-9.03-13.78-13.48-20.71-9.6-14.95-19.16-29.94-28.75-44.9-1.26-1.97-2.65-2.31-3.96-.01-1.96,3.44-4.03,6.82-5.79,10.35-9.66,19.28-19.25,38.59-28.84,57.91-2.3,4.65-1.67,5.63,3.59,5.43,4.98-.18,9.95-.56,14.71-.85ZM267.25,291.04c9.38,0,17.62.17,25.85-.06,5.93-.16,10.8,1.12,16.18,4.46,29.29,18.2,61.03,21.98,94.44,14.2,20.13-4.68,36.58-15.9,52.37-28.47,2.11-1.68,2.25-3.07.32-5-3.54-3.54-7.05-7.12-10.31-10.92-2.66-3.1-4.74-2.78-7.7-.23-10.25,8.82-21.89,15.67-34.74,19.6-33.06,10.12-63.85,5.12-91.73-15.76-2.81-2.11-5.46-4.43-8.84-7.19-4.77,5.31-9.5,10.44-13.98,15.78-.43.51.39,2.6,1.17,3.47,1.88,2.11,4.09,3.93,6.57,6.24h-29.04c0-22.76,0-45.16,0-67.57,0-4.28.08-8.56-.07-12.83-.03-.9-.92-1.77-1.42-2.66-.51.92-1.22,1.78-1.49,2.77-.26.96-.05,2.05-.05,3.08,0,24.04,0,48.08,0,72.11,0,1.72,0,3.45,0,5.6-4.41,0-8.24-.01-12.06,0-21.23.07-42.46.13-63.68.27-1.75.01-3.5.6-5.24.92.08.64.15,1.28.23,1.91h80.63c.45,27.13-.34,53.46,1.04,79.79.97-.39,1.53-.83,1.54-1.26.04-25.9.04-51.79.04-78.29ZM126.2,186.61c.99,27.32,19.01,50.7,48.18,51,29.18.3,49.62-21.71,49.76-51.04.12-25.69-22.48-48.75-50.74-48.51-21.16.18-47.05,21.62-47.2,48.55ZM375.2,138.53c-26.04-2.23-48.82,19.53-50.74,44.43-2.14,27.75,16.63,54.04,48.05,54.79,23.44.56,48.07-18.84,49.19-49.2.88-23.98-21.86-50.3-46.5-50.01ZM378.3,274.51c.08.37.16.73.24,1.1,6.64-1.54,13.3-3.02,19.93-4.64,11.49-2.82,21.02-9.36,30.33-16.28,2.2-1.63,2.39-3.37.34-5.5-3.46-3.59-6.8-7.32-9.99-11.15-1.75-2.1-2.94-2.16-5.47-.76-8.41,4.64-16.69,10.26-25.78,12.75-19.85,5.44-38.37.94-54.52-11.98-3.21-2.57-5.2-2.31-7.62.71-3.21,4-6.79,7.73-9.92,11.79-.57.74-.27,3.14.46,3.71,3.8,2.99,7.66,6.04,11.9,8.32,15.61,8.41,31.9,14.34,50.12,11.93Z"/>
  <path class="cls-1" d="M67.04,322.98c-4.76.28-9.73.66-14.71.85-5.26.19-5.89-.79-3.59-5.43,9.58-19.32,19.18-38.63,28.84-57.91,1.77-3.53,3.84-6.91,5.79-10.35,1.31-2.29,2.7-1.96,3.96.01,9.59,14.96,19.15,29.94,28.75,44.9,4.45,6.93,9,13.8,13.48,20.71.46.71.77,1.5,1.76,3.46-6.64.63-12.6,1.19-18.62,1.76,13.18,48.58,53.25,99.4,118.75,114.99,79.09,18.83,149.87-20.09,181.29-77.16-7.09-3.69-14.18-7.37-21.27-11.06-.65-.34-1.34-.6-1.98-.95-4.88-2.66-4.83-2.63-2.1-7.48,1.66-2.95,3.57-5.86,4.58-9.04,1.17-3.68,2.9-3.28,5.55-1.91,11.99,6.21,24.04,12.3,36.04,18.51,12.14,6.28,24.26,12.6,36.34,19.01,5.77,3.07,11.49,6.26,17.04,9.71.95.59,1.65,3.05,1.21,4.13-1.61,3.94-3.76,7.65-5.7,11.46-1.35,2.66-3.11,3-5.77,1.6-8.05-4.24-16.2-8.29-24-12.25-57.69,84.87-135.78,122.41-236.82,96.42-79.13-20.35-126.71-75.39-148.82-153.98ZM126.2,316.33c-13.64-21.24-26.95-41.96-41.05-63.9-11.67,23.38-22.76,45.58-34.07,68.25,3.97-.18,7.16-.32,10.35-.46,8.43-.38,7.87-.19,10.64,7.63,5.29,14.91,10.23,30.09,17.21,44.22,15.82,31.99,40.01,57.12,69.62,76.47,44.92,29.34,94.4,38.77,147.3,30.18,37.65-6.11,70.52-22.46,99.13-47.43,15.81-13.81,29.25-29.77,40.61-47.46,5.37-8.37,5.39-8.18,14.05-3.29,6.2,3.5,12.63,6.59,19.21,9.99,2.23-4.34,4.15-8.08,6.43-12.51-30.15-15.82-59.98-31.47-90.18-47.31-2.11,4.22-4.05,8.08-6.14,12.24,9.65,5.03,18.84,9.83,28.5,14.87-2.45,3.6-4.52,6.92-6.86,10.05-5.97,8-11.34,16.59-18.21,23.74-27.75,28.87-61.39,46.62-101.48,50.92-20.26,2.17-40.47,1.69-60.41-3.46-42.89-11.07-76.86-34.55-100.83-72.05-8.92-13.95-15.93-28.79-20.82-44.64-1-3.23-.08-4.43,2.89-4.74,4.47-.45,8.96-.83,14.12-1.29Z"/>
  <path class="cls-1" d="M267.25,291.04c0,26.5,0,52.4-.04,78.29,0,.44-.56.88-1.54,1.26-1.38-26.34-.59-52.67-1.04-79.79h-80.63c-.08-.64-.15-1.28-.23-1.91,1.75-.32,3.49-.91,5.24-.92,21.23-.14,42.45-.2,63.68-.27,3.82-.01,7.64,0,12.06,0,0-2.15,0-3.88,0-5.6,0-24.04,0-48.08,0-72.11,0-1.03-.2-2.12.05-3.08.26-.98.97-1.85,1.49-2.77.5.88,1.39,1.75,1.42,2.66.15,4.27.07,8.55.07,12.83,0,22.41,0,44.81,0,67.57h29.04c-2.48-2.31-4.68-4.14-6.57-6.24-.78-.87-1.6-2.97-1.17-3.47,4.48-5.34,9.21-10.47,13.98-15.78,3.38,2.76,6.03,5.08,8.84,7.19,27.89,20.88,58.67,25.87,91.73,15.76,12.85-3.93,24.48-10.78,34.74-19.6,2.96-2.55,5.04-2.87,7.7.23,3.26,3.79,6.77,7.37,10.31,10.92,1.93,1.94,1.79,3.33-.32,5-15.79,12.57-32.24,23.79-52.37,28.47-33.41,7.77-65.15,3.99-94.44-14.2-5.38-3.34-10.25-4.63-16.18-4.46-8.23.22-16.47.06-25.85.06ZM309.74,290.49c27.82,23.2,95.5,33.49,144.3-12.55-3.9-3.76-7.79-7.52-11.43-11.04-6.13,3.92-12.19,8.06-18.49,11.79-19.22,11.37-39.9,15.45-62.21,13.58-16.91-1.42-33.96-1.22-52.17-1.77ZM336.34,287.53c-10.88-6.63-22.12-13.47-33.76-20.56-3.06,3.36-6.72,7.38-10.31,11.33,2.48,2.32,4.17,4.18,6.14,5.68,1.81,1.38,3.88,3.33,5.89,3.39,10.92.33,21.85.16,32.04.16Z"/>
  <path class="cls-1" d="M126.2,186.61c.16-26.93,26.04-48.37,47.2-48.55,28.26-.24,50.85,22.82,50.74,48.51-.13,29.32-20.58,51.33-49.76,51.04-29.17-.3-47.19-23.68-48.18-51ZM175.63,141.51c-22.69.83-46.03,18.62-46.13,45.19-.09,24.37,17.1,46.52,43.31,47.74,27.42,1.28,48.29-20.92,47.99-47.4-.29-25.19-19.45-43.23-45.17-45.53Z"/>
  <path class="cls-1" d="M375.2,138.53c24.64-.28,47.39,26.04,46.5,50.01-1.12,30.36-25.75,49.76-49.19,49.2-31.42-.75-50.19-27.04-48.05-54.79,1.92-24.9,24.7-46.65,50.74-44.43ZM418.13,187.91c2.2-23.2-20.64-47.06-48.18-46.47-21.72.47-43.23,22.79-42.68,45.74.62,25.82,18.92,47.17,46.06,47.43,24.12.23,46.27-22.83,44.8-46.71Z"/>
  <path class="cls-1" d="M378.3,274.51c-18.23,2.42-34.51-3.52-50.12-11.93-4.24-2.28-8.09-5.33-11.9-8.32-.73-.57-1.03-2.98-.46-3.71,3.14-4.06,6.71-7.78,9.92-11.79,2.42-3.02,4.41-3.28,7.62-.71,16.15,12.92,34.67,17.42,54.52,11.98,9.09-2.49,17.37-8.11,25.78-12.75,2.53-1.4,3.72-1.34,5.47.76,3.2,3.83,6.53,7.56,9.99,11.15,2.06,2.14,1.86,3.87-.34,5.5-9.31,6.92-18.84,13.45-30.33,16.28-6.62,1.63-13.28,3.1-19.93,4.64-.08-.37-.16-.73-.24-1.1ZM318.8,251.79c24.78,25.93,88.02,25.6,107.95-.32-3.43-3.89-6.9-7.82-10.42-11.8-29.14,20.82-57.97,20.93-86.99.02-3.51,4.03-6.96,7.99-10.54,12.1Z"/>
  <path class="cls-2" d="M126.2,316.33c-5.16.47-9.64.84-14.12,1.29-2.97.3-3.89,1.51-2.89,4.74,4.9,15.85,11.9,30.69,20.82,44.64,23.97,37.51,57.94,60.98,100.83,72.05,19.94,5.15,40.16,5.63,60.41,3.46,40.09-4.3,73.73-22.05,101.48-50.92,6.87-7.14,12.24-15.74,18.21-23.74,2.33-3.13,4.41-6.44,6.86-10.05-9.66-5.04-18.85-9.84-28.5-14.87,2.09-4.16,4.02-8.03,6.14-12.24,30.2,15.84,60.02,31.49,90.18,47.31-2.28,4.43-4.2,8.18-6.43,12.51-6.58-3.4-13.01-6.49-19.21-9.99-8.66-4.89-8.68-5.08-14.05,3.29-11.36,17.7-24.79,33.66-40.61,47.46-28.6,24.98-61.48,41.32-99.13,47.43-52.89,8.59-102.38-.84-147.3-30.18-29.61-19.35-53.8-44.47-69.62-76.47-6.98-14.13-11.92-29.31-17.21-44.22-2.77-7.81-2.21-8.01-10.64-7.63-3.19.15-6.38.29-10.35.46,11.32-22.67,22.4-44.87,34.07-68.25,14.1,21.94,27.41,42.66,41.05,63.9Z"/>
  <path class="cls-2" d="M309.74,290.49c18.21.56,35.26.35,52.17,1.77,22.31,1.87,42.99-2.21,62.21-13.58,6.3-3.73,12.36-7.86,18.49-11.79,3.64,3.51,7.53,7.27,11.43,11.04-48.8,46.04-116.49,35.75-144.3,12.55Z"/>
  <path class="cls-2" d="M336.34,287.53c-10.19,0-21.12.17-32.04-.16-2.01-.06-4.08-2.01-5.89-3.39-1.97-1.5-3.67-3.36-6.14-5.68,3.6-3.95,7.25-7.97,10.31-11.33,11.64,7.09,22.88,13.93,33.76,20.56Z"/>
  <path class="cls-2" d="M175.63,141.51c25.72,2.3,44.88,20.34,45.17,45.53.3,26.48-20.57,48.68-47.99,47.4-26.2-1.22-43.39-23.37-43.31-47.74.1-26.57,23.44-44.36,46.13-45.19ZM174.77,216.75c16.42.04,29.38-12.84,29.38-29.2,0-16.42-13.22-28.44-31.32-28.47-13.3-.02-26.31,13.88-26.34,28.13-.03,16.83,12.1,29.5,28.28,29.54Z"/>
  <path class="cls-2" d="M418.13,187.91c1.47,23.88-20.68,46.94-44.8,46.71-27.13-.26-45.44-21.61-46.06-47.43-.55-22.96,20.96-45.28,42.68-45.74,27.54-.59,50.38,23.27,48.18,46.47Z"/>
  <path class="cls-2" d="M318.8,251.79c3.58-4.12,7.03-8.07,10.54-12.1,29.02,20.9,57.85,20.8,86.99-.02,3.52,3.99,6.99,7.92,10.42,11.8-19.93,25.92-83.17,26.25-107.95.32Z"/>
  <path class="cls-1" d="M174.77,216.75c-16.18-.04-28.31-12.7-28.28-29.54.03-14.25,13.04-28.15,26.34-28.13,18.09.03,31.32,12.05,31.32,28.47,0,16.36-12.96,29.23-29.38,29.2ZM175.51,162.63c-12.8-1.93-25.91,10.9-25.91,25.17,0,14.31,10.26,25.19,24.66,25.87,13.76.65,26.31-11.1,26.93-25.36.6-13.55-10.91-25.05-25.68-25.67Z"/>
  <path class="cls-2" d="M175.51,162.63c14.77.62,26.27,12.13,25.68,25.67-.63,14.27-13.18,26.01-26.93,25.36-14.4-.68-24.66-11.55-24.66-25.87,0-14.27,13.11-27.1,25.91-25.17Z"/>
</svg>